<svg width="0" height="0" viewBox="0 0 468 307">
    <defs>
		<clipPath id="half-circle-right" clipPathUnits="objectBoundingBox" transform="scale(0.002136752136752 0.003257328990228)">
        	<path d="M5,0 L452.766545,7.93795082e-07 C455.527968,7.93795082e-07 457.766544,2.23857669 457.766544,5 C457.766544,5.59121258 457.661691,6.17773986 457.456855,6.73233404 C439.856409,54.3857032 431.056186,101.281862 431.056186,147.420811 C431.056186,195.730929 440.704124,244.871119 460,294.841379 L5.04581897,299.001449 C2.28451066,299.026698 0.0255594541,296.808684 0.000310239104,294.047376 C0.000170901335,294.032138 0.000101228735,294.016899 0.000101223488,294.00166 L2.96651592e-13,5 C-9.50745847e-07,2.23857625 2.23857453,-7.70731425e-07 4.99999828,-1.72147757e-06 C4.99999885,-1.72147777e-06 4.99999943,-1.72147787e-06 5,-1.72147787e-06 Z" id="path-1"></path>
		</clipPath>
    </defs>
</svg>