<svg xmlns="http://www.w3.org/2000/svg" width="175" height="180" viewBox="0 0 174.6 180.5"><defs><linearGradient y2="25.5" x2="120" y1="25.5" x1="34.9" gradientUnits="userSpaceOnUse" id="superior-SVGID_3_"><stop offset="0" stop-color="#1A438E"/><stop offset="0.1099" stop-color="#304D94"/><stop offset="0.3362" stop-color="#5667A5"/><stop offset="0.6598" stop-color="#959BC7"/><stop offset="1" stop-color="#FFF"/></linearGradient><linearGradient y2="52.6" x2="133.2" y1="52.6" x1="48.3" gradientUnits="userSpaceOnUse" id="superior-SVGID_4_"><stop offset="0" stop-color="#F9C300"/><stop offset="0.0687" stop-color="#F8BE09"/><stop offset="0.1657" stop-color="#F5AF1D"/><stop offset="0.2796" stop-color="#F09A2A"/><stop offset="0.4053" stop-color="#EA7E33"/><stop offset="0.4848" stop-color="#E76A36"/><stop offset="0.6235" stop-color="#E26835"/><stop offset="0.7069" stop-color="#D46332"/><stop offset="0.7756" stop-color="#BF5B2E"/><stop offset="0.8364" stop-color="#A45027"/><stop offset="0.8914" stop-color="#85431E"/><stop offset="0.9333" stop-color="#6C3715"/></linearGradient><linearGradient xlink:href="#superior-SVGID_4_" x1="197.1" y1="126.8" x2="276.2" y2="126.8" gradientUnits="userSpaceOnUse" gradientTransform="translate(-148.74947,-77.095999)" id="superior-linearGradient4398"/><linearGradient xlink:href="#superior-SVGID_3_" x1="194.7" y1="103.7" x2="268.1" y2="103.7" gradientUnits="userSpaceOnUse" gradientTransform="translate(-148.74947,-77.095999)" id="superior-linearGradient4406"/></defs><path d="m3.6 163c-0.7 0-0.6 1 0.1 1l167.6 0c0.6 0 0.6-1 0-1l-167.6 0c0 0 0 0-0.1 0zm64.2 8.1c-1.1 0-1.9 0.4-2.6 1.1-0.7 0.7-1 1.7-1 3 0 0.7 0.1 1.3 0.4 1.9 0.3 0.6 0.7 1.1 1.3 1.4 0.6 0.3 1.2 0.5 1.9 0.5 0.7 0 1.3-0.2 1.8-0.5 0.6-0.3 1-0.8 1.3-1.4 0.3-0.6 0.5-1.3 0.5-2.1 0-0.8-0.1-1.4-0.4-2l0 0c-0.3-0.6-0.7-1.1-1.3-1.4-0.6-0.3-1.2-0.5-1.9-0.5zm35 0c-1.1 0-1.9 0.4-2.6 1.1-0.7 0.7-1 1.7-1 3 0 0.7 0.1 1.3 0.4 1.9 0.3 0.6 0.7 1.1 1.3 1.4 0.6 0.3 1.2 0.5 1.9 0.5 0.7 0 1.3-0.2 1.8-0.5 0.6-0.3 1-0.8 1.3-1.4 0.3-0.6 0.5-1.3 0.5-2.1 0-0.8-0.1-1.4-0.4-2-0.3-0.6-0.7-1.1-1.3-1.4-0.6-0.3-1.2-0.5-1.9-0.5zm-90.2 0c-0.5 0-1 0.1-1.4 0.3-0.4 0.2-0.7 0.4-1 0.8-0.2 0.3-0.3 0.7-0.3 1.1 0 0.4 0.1 0.7 0.3 1 0.2 0.3 0.5 0.5 0.8 0.7 0.3 0.2 0.8 0.3 1.5 0.5 0.7 0.2 1.1 0.3 1.3 0.4 0.3 0.1 0.5 0.3 0.6 0.4 0.1 0.2 0.2 0.4 0.2 0.6 0 0.2-0.1 0.4-0.2 0.6-0.1 0.2-0.3 0.3-0.6 0.4-0.3 0.1-0.6 0.2-1 0.2-0.4 0-0.8-0.1-1.1-0.2-0.3-0.1-0.6-0.3-0.7-0.6-0.2-0.2-0.3-0.5-0.3-0.9l0-0.1-1.1 0.1 0 0.1c0 0.5 0.2 1 0.4 1.4 0.3 0.4 0.6 0.7 1.1 0.9 0.5 0.2 1 0.3 1.7 0.3 0.5 0 1-0.1 1.5-0.3 0.4-0.2 0.8-0.5 1-0.8 0.2-0.4 0.3-0.7 0.3-1.2 0-0.4-0.1-0.8-0.3-1.1-0.2-0.3-0.5-0.6-1-0.8-0.3-0.1-0.9-0.3-1.7-0.5-0.8-0.2-1.3-0.4-1.5-0.5-0.2-0.2-0.3-0.4-0.3-0.6 0-0.3 0.1-0.5 0.4-0.7 0.3-0.2 0.7-0.3 1.3-0.3 0.6 0 1 0.1 1.3 0.3l0 0c0.3 0.2 0.4 0.6 0.5 1l0 0.1 1.1-0.1 0-0.1c0-0.4-0.1-0.9-0.4-1.2-0.2-0.4-0.6-0.6-1-0.8-0.4-0.2-0.9-0.3-1.5-0.3zm122.8 0c-0.5 0-1 0.1-1.4 0.3-0.4 0.2-0.7 0.4-1 0.8-0.2 0.3-0.3 0.7-0.3 1.1 0 0.4 0.1 0.7 0.3 1 0.2 0.3 0.5 0.5 0.8 0.7 0.3 0.2 0.8 0.3 1.5 0.5 0.7 0.2 1.1 0.3 1.3 0.4 0.3 0.1 0.5 0.3 0.6 0.4 0.1 0.2 0.2 0.4 0.2 0.6 0 0.2-0.1 0.4-0.2 0.6-0.1 0.2-0.3 0.3-0.6 0.4-0.3 0.1-0.6 0.2-1 0.2-0.4 0-0.8-0.1-1.1-0.2l0 0c-0.3-0.1-0.6-0.3-0.7-0.6-0.2-0.2-0.3-0.5-0.3-0.9l0-0.1-1.1 0.1 0 0.1 0 0c0 0.5 0.2 1 0.4 1.4 0.3 0.4 0.6 0.7 1.1 0.9 0.5 0.2 1 0.3 1.7 0.3 0.5 0 1-0.1 1.5-0.3 0.4-0.2 0.8-0.5 1-0.8 0.2-0.4 0.4-0.7 0.4-1.2 0-0.4-0.1-0.8-0.3-1.1-0.2-0.3-0.5-0.6-1-0.8-0.3-0.1-0.9-0.3-1.7-0.5-0.8-0.2-1.3-0.4-1.5-0.5-0.2-0.2-0.3-0.4-0.3-0.6 0-0.3 0.1-0.5 0.4-0.7l0 0c0.3-0.2 0.7-0.3 1.3-0.3 0.6 0 1 0.1 1.3 0.3l0 0c0.3 0.2 0.4 0.6 0.5 1l0 0.1 1.1-0.1 0-0.1c0-0.4-0.1-0.9-0.4-1.2-0.2-0.4-0.6-0.6-1-0.8-0.4-0.2-0.9-0.3-1.5-0.3zm-105.7 0.1 0 7.5 0 0.1 1.1 0 0-3 1.8 0c1.1 0 1.8-0.2 2.2-0.7 0.4-0.5 0.6-1 0.6-1.7 0-0.4-0.1-0.7-0.2-1-0.2-0.3-0.4-0.6-0.6-0.7-0.3-0.2-0.6-0.3-0.9-0.4l0 0c-0.3 0-0.6-0.1-1.1-0.1zm9.6 0 0 7.6 0.1 0 5.6 0 0-1-4.6 0 0-2.4 4.1 0 0-1-4.1 0 0-2.2 4.4 0 0-1zm9.6 0 0 7.5 0 0.1 0.1 0 0.1 0-0.1 0.1 1.1 0 0-3.3 1.1 0c0.3 0 0.4 0 0.5 0 0.1 0 0.3 0.1 0.4 0.2 0.1 0.1 0.3 0.3 0.5 0.5 0.2 0.2 0.4 0.6 0.7 1l1 1.6 1.4 0-1.4-2.1 0 0c-0.3-0.4-0.5-0.7-0.8-1-0.1-0.1-0.3-0.2-0.5-0.3 0.6-0.1 1.2-0.3 1.5-0.7 0.4-0.4 0.5-0.8 0.5-1.4 0-0.4-0.1-0.8-0.3-1.2-0.2-0.4-0.5-0.6-0.9-0.7-0.4-0.1-0.9-0.2-1.5-0.2zm10.3 0 0 7.6 0.1 0 1.1 0 0-7.6zm16.1 0 0 7.5 0 0.1 0.1 0 0.1 0-0.1 0.1 1.1 0 0-3.3 1.1 0c0.3 0 0.4 0 0.5 0 0.1 0 0.3 0.1 0.4 0.2 0.1 0.1 0.3 0.3 0.5 0.5 0.2 0.2 0.4 0.6 0.7 1l1 1.6 1.4 0-1.4-2.1 0 0c-0.3-0.4-0.5-0.7-0.8-1-0.1-0.1-0.3-0.2-0.5-0.3 0.6-0.1 1.2-0.3 1.5-0.7 0.4-0.4 0.5-0.8 0.5-1.4 0-0.4-0.1-0.8-0.3-1.2-0.2-0.4-0.5-0.6-0.9-0.7-0.4-0.1-0.9-0.2-1.5-0.2zm14.9 0 0 1 2.5 0 0 6.6 0.1 0 1.1 0 0-6.6 2.5 0 0-1zm19.4 0 2 7.5 0.1 0-0.1 0.1 1.1 0 1.6-5.7c0-0.2 0.1-0.4 0.2-0.6 0 0.2 0.1 0.3 0.2 0.6l1.6 5.7 1.1 0 2.1-7.6-1.1 0-1.2 4.8c-0.1 0.5-0.2 0.9-0.3 1.3-0.1-0.7-0.3-1.5-0.5-2.4l-1.1-3.8-1.3 0-1.4 5.1c0 0.1-0.1 0.6-0.3 1.1-0.1-0.4-0.2-0.8-0.3-1.2l-1.1-4.9zm13.1 0 0 7.6 0.1 0 1 0 0-5.7 3.8 5.7 1.1 0 0-7.6-1.1 0 0 5.7-3.8-5.7zm19.8 0 0 7.6 0.1 0 1.1 0 0-3.5 3.8 0 0 3.5 1.1 0 0-7.6-1.1 0 0 3.1-3.8 0 0-3.1zm10.3 0 0 7.6 0.1 0 1.1 0 0-7.6zm5.3 0 0 7.5 0 0.1 1.1 0 0-3 1.8 0c1.1 0 1.8-0.2 2.2-0.7 0.4-0.5 0.6-1 0.6-1.7 0-0.4-0.1-0.7-0.2-1-0.2-0.3-0.4-0.6-0.6-0.7-0.3-0.2-0.6-0.3-0.9-0.4l0 0c-0.3 0-0.7-0.1-1.1-0.1zm-138.4 0 0 4.4c0 0.8 0.1 1.4 0.3 1.9 0.2 0.5 0.5 0.8 1 1.1l0 0c0.5 0.2 1 0.4 1.7 0.4 0.7 0 1.3-0.1 1.8-0.4 0.5-0.3 0.8-0.7 0.9-1.1 0.2-0.5 0.3-1.1 0.3-1.8l0-4.4-1.1 0 0 0.1 0 4.3c0 0.9-0.2 1.6-0.4 1.9-0.3 0.3-0.8 0.5-1.5 0.5-0.4 0-0.8-0.1-1-0.2-0.3-0.2-0.5-0.4-0.6-0.7-0.1-0.3-0.2-0.8-0.2-1.4l0-4.4zm48.3 0.8c0.5 0 0.9 0.1 1.3 0.4 0.4 0.2 0.7 0.6 0.9 1 0.2 0.4 0.3 1 0.3 1.6 0 1-0.2 1.7-0.7 2.2-0.5 0.5-1.1 0.8-1.8 0.8-0.7 0-1.3-0.2-1.8-0.8-0.5-0.5-0.7-1.2-0.7-2.1 0-1.1 0.2-1.9 0.7-2.4 0.5-0.5 1.1-0.7 1.8-0.7zm35 0c0.5 0 0.9 0.1 1.3 0.4 0.4 0.2 0.7 0.6 0.9 1 0.2 0.4 0.3 1 0.3 1.6 0 1-0.2 1.7-0.7 2.2-0.5 0.5-1.1 0.8-1.8 0.8-0.7 0-1.3-0.2-1.8-0.8-0.5-0.5-0.7-1.2-0.7-2.1 0-1.1 0.3-1.9 0.7-2.4 0.5-0.5 1.1-0.7 1.8-0.7zM50 172.2l2.3 0c0.5 0 0.9 0.1 1.2 0.3 0.2 0.2 0.4 0.5 0.4 0.8 0 0.2-0.1 0.4-0.2 0.6-0.1 0.2-0.3 0.3-0.5 0.4-0.2 0.1-0.6 0.1-1 0.1l-2.1 0zm26.4 0 2.3 0c0.5 0 0.9 0.1 1.2 0.3 0.2 0.2 0.4 0.5 0.4 0.8 0 0.2-0.1 0.4-0.2 0.6-0.1 0.2-0.3 0.3-0.5 0.4-0.2 0.1-0.6 0.1-1 0.1l-2.1 0zm-45.5 0.1 1.8 0c0.4 0 0.8 0 0.9 0.1 0.2 0.1 0.4 0.2 0.6 0.4 0.1 0.2 0.2 0.5 0.2 0.8 0 0.4-0.1 0.7-0.4 1-0.2 0.2-0.7 0.3-1.3 0.3l-1.9 0zm128.3 0 1.8 0c0.4 0 0.8 0 0.9 0.1 0.2 0.1 0.4 0.2 0.6 0.4 0.1 0.2 0.2 0.5 0.2 0.8 0 0.4-0.1 0.7-0.4 1-0.2 0.2-0.7 0.3-1.3 0.3l-1.9 0z"/><path d="m32.9 95.7c-0.7 0-1.2 0.2-1.6 0.7-0.4 0.5-0.6 1.2-0.6 2.1l0 19.8c0 0.9 0.2 1.5 0.6 2 0.4 0.5 0.9 0.7 1.6 0.7 0.6 0 1.2-0.2 1.6-0.7 0.4-0.5 0.6-1.1 0.6-2l0-0.3c0.4 0.5 0.8 0.9 1.1 1.2 0.3 0.3 0.7 0.6 1.1 0.8 0.4 0.3 1 0.5 1.6 0.7 0.6 0.2 1.3 0.3 2 0.3 1.2 0 2.2-0.2 3.2-0.7 1-0.5 1.8-1.1 2.4-2 0.7-0.8 1.2-1.9 1.5-3 0.4-1.2 0.5-2.4 0.5-3.8 0-1.9-0.3-3.5-0.9-4.9-0.6-1.4-1.5-2.4-2.7-3.1-1.1-0.7-2.5-1.1-4-1.1-1.3 0-2.4 0.2-3.3 0.7-0.9 0.5-1.7 1.1-2.5 2l0-6.8c0-0.8-0.2-1.5-0.6-2-0.4-0.5-1-0.7-1.7-0.7zm-30.2 0c-0.7 0-1.3 0.2-1.8 0.7-0.5 0.5-0.7 1-0.7 1.6 0 0.2 0 0.5 0.1 0.8 0.1 0.3 0.2 0.6 0.3 0.9 0.1 0.3 0.2 0.6 0.3 0.8l5.8 15.8c0.2 0.6 0.4 1.2 0.6 1.7 0.2 0.5 0.5 1 0.7 1.5 0.3 0.4 0.7 0.8 1.1 1.1 0.5 0.3 1 0.4 1.7 0.4 0.7 0 1.2-0.1 1.7-0.4 0.5-0.3 0.8-0.6 1.1-1 0.3-0.4 0.5-0.9 0.7-1.5 0.2-0.5 0.4-1.1 0.6-1.7l0 0 5.9-15.9c0.1-0.3 0.2-0.6 0.3-0.8 0.1-0.3 0.2-0.6 0.3-0.8 0.1-0.3 0.1-0.6 0.1-0.8 0-0.4-0.1-0.7-0.3-1.1-0.2-0.4-0.5-0.6-0.9-0.9-0.4-0.2-0.8-0.3-1.2-0.3-0.6 0-1.1 0.1-1.4 0.4-0.3 0.3-0.6 0.6-0.7 0.9-0.1 0.3-0.4 0.9-0.7 1.8L11.1 115.1 5.7 98.9c-0.4-1.1-0.8-1.9-1.1-2.4-0.4-0.6-1-0.8-1.9-0.8zm149.4 0c-1.5 0-2.7 0.2-3.6 0.6-0.9 0.4-1.5 1-1.9 1.9-0.4 0.9-0.5 2-0.5 3.4l0 1.3-1 0c-0.8 0-1.3 0.1-1.7 0.4-0.4 0.3-0.6 0.7-0.6 1.3 0 0.5 0.2 0.9 0.6 1.2 0.4 0.3 0.9 0.5 1.6 0.5l1.2 0 0 12c0 0.9 0.2 1.6 0.7 2.1 0.4 0.5 1 0.7 1.7 0.7 0.7 0 1.3-0.2 1.7-0.7 0.4-0.5 0.7-1.2 0.7-2.1l0-12 1.1 0c0.8 0 1.5-0.1 1.9-0.3l0 0c0.2-0.1 0.4-0.3 0.6-0.5 0.1-0.2 0.2-0.6 0.2-0.9 0-0.5-0.2-1-0.7-1.2-0.4-0.3-1.1-0.4-2-0.4l-1.1 0 0-1c0-0.9 0.1-1.6 0.3-2 0.2-0.5 0.7-0.7 1.5-0.7 0.3 0 0.7 0 1.1 0.1 0.4 0.1 0.7 0.1 0.9 0.1 0.4 0 0.7-0.2 1-0.5 0.3-0.3 0.4-0.7 0.4-1.1 0-0.7-0.4-1.2-1-1.5-0.7-0.3-1.7-0.5-3-0.5zm-30.8 0c-0.7 0-1.4 0.3-1.8 0.8-0.5 0.5-0.7 1.3-0.7 2.3l0 18.8c0 1.1 0.2 1.9 0.7 2.4 0.5 0.5 1.3 0.7 2.4 0.7l11.9 0c0.8 0 1.5-0.2 1.9-0.6 0.4-0.4 0.7-0.9 0.7-1.5 0-0.6-0.2-1.1-0.7-1.5-0.4-0.4-1.1-0.6-1.9-0.6l-10 0 0-17.7c0-1-0.2-1.8-0.7-2.3-0.5-0.5-1.1-0.8-1.9-0.8zm-95.9 0.2c-0.6 0-1.2 0.2-1.6 0.6-0.5 0.4-0.7 1-0.7 1.6 0 0.7 0.2 1.3 0.7 1.7 0.5 0.4 1 0.6 1.7 0.6 0.6 0 1.2-0.2 1.6-0.6 0.5-0.4 0.7-1 0.7-1.7 0-0.7-0.2-1.3-0.7-1.7-0.5-0.4-1-0.6-1.6-0.6zm114.6 0c-0.6 0-1.2 0.2-1.7 0.6l0 0c-0.5 0.4-0.7 1-0.7 1.6 0 0.7 0.2 1.3 0.7 1.7 0.5 0.4 1 0.6 1.7 0.6 0.6 0 1.2-0.2 1.6-0.6 0.5-0.4 0.7-1 0.7-1.7 0-0.7-0.2-1.3-0.7-1.7-0.5-0.4-1-0.6-1.6-0.6zm-36 0.4c-0.4 0-0.8 0.1-1.1 0.3-0.3 0.2-0.6 0.5-0.8 0.8-0.2 0.3-0.3 0.7-0.3 1.1 0 0.4-0.1 1-0.1 1.7l0 2.7-0.4 0c-0.7 0-1.2 0.2-1.6 0.5-0.4 0.3-0.6 0.7-0.6 1.2 0 0.5 0.2 0.9 0.5 1.2 0.4 0.3 0.9 0.5 1.5 0.5l0.5 0 0 8.7c0 1.4 0.1 2.5 0.3 3.4 0.2 0.9 0.7 1.5 1.5 2 0.7 0.5 1.8 0.7 3.3 0.7 1.5 0 2.7-0.2 3.5-0.6 0.8-0.4 1.2-1 1.2-1.7 0-0.4-0.2-0.8-0.5-1.1-0.3-0.3-0.7-0.5-1-0.5-0.3 0-0.6 0-1.1 0.1-0.5 0.1-0.8 0.1-1.1 0.1-0.5 0-0.8-0.1-1-0.3-0.2-0.2-0.3-0.5-0.4-0.9-0.1-0.4-0.1-0.9-0.1-1.6l0-8.3 0.8 0c0.9 0 1.6-0.1 2.1-0.4 0.5-0.3 0.8-0.7 0.8-1.3 0-0.5-0.2-0.9-0.5-1.2-0.4-0.3-0.9-0.5-1.5-0.5l-1.6 0 0-3c0-0.8 0-1.4-0.1-1.8-0.1-0.4-0.3-0.8-0.6-1.1-0.5-0.4-1-0.7-1.6-0.7zm-33.1 6.1c-1.8 0-3.3 0.2-4.5 0.7-1.2 0.5-2.1 1.1-2.7 1.9-0.6 0.8-0.9 1.6-0.9 2.4 0 0.5 0.2 1 0.6 1.3 0.4 0.3 0.8 0.5 1.4 0.5 0.6 0 1-0.1 1.2-0.3 0.2-0.2 0.5-0.6 0.9-1.3 0.4-0.6 0.9-1.1 1.5-1.4 0.6-0.3 1.4-0.5 2.6-0.5 1.3 0 2.2 0.3 2.6 0.8 0.4 0.5 0.6 1.4 0.7 2.6-0.9 0.3-1.8 0.5-2.6 0.7-0.8 0.2-1.8 0.4-2.9 0.6-1.1 0.2-1.9 0.4-2.1 0.4-1.4 0.3-2.5 0.9-3.3 1.8-0.8 0.9-1.2 2-1.2 3.2 0 0.9 0.2 1.8 0.7 2.6 0.5 0.8 1.2 1.4 2.1 1.9 0.9 0.5 1.9 0.7 3.1 0.7 1.3 0 2.4-0.2 3.5-0.6 1-0.4 2.1-1.1 3.1-1.9 0.5 0.8 1 1.4 1.4 1.9 0.5 0.4 0.9 0.7 1.4 0.7 0.6 0 1.1-0.2 1.5-0.6 0.4-0.4 0.7-0.8 0.7-1.3 0-0.3-0.1-0.9-0.4-1.8-0.3-0.9-0.4-1.8-0.4-2.7 0-0.9 0-1.7 0-2.5 0-0.7 0-1.7 0-2.7 0-1.7-0.2-3.1-0.7-4.1-0.5-1-1.3-1.8-2.5-2.3-1.2-0.5-2.7-0.7-4.7-0.7zm91.9 0c-1.4 0-2.6 0.2-3.8 0.7-1.1 0.4-2.1 1.1-2.9 1.9-0.8 0.8-1.4 1.8-1.8 3-0.4 1.2-0.6 2.4-0.6 3.8 0 2.9 0.8 5.1 2.4 6.8 1.6 1.7 3.9 2.5 6.9 2.5 1.3 0 2.4-0.2 3.4-0.5 1-0.3 1.8-0.8 2.5-1.3 0.7-0.5 1.1-1 1.5-1.6 0.3-0.6 0.5-1 0.5-1.5 0-0.5-0.2-0.9-0.5-1.1-0.3-0.3-0.7-0.4-1.2-0.4-0.4 0-0.8 0.1-1 0.3l0 0 0 0c-0.6 0.5-1 1-1.4 1.3-0.4 0.3-0.7 0.6-1.2 0.9-0.4 0.3-0.8 0.5-1.3 0.6-0.4 0.1-0.9 0.2-1.5 0.2-0.8 0-1.5-0.2-2.2-0.6-0.7-0.4-1.2-1-1.6-1.8-0.4-0.8-0.6-1.6-0.6-2.6l8.8 0c1.2 0 2.1-0.2 2.8-0.5 0.7-0.4 1-1.1 1-2.3 0-1.2-0.3-2.5-1-3.7-0.6-1.2-1.6-2.2-2.9-2.9-1.3-0.8-2.8-1.1-4.6-1.1zm-79 0c-0.7 0-1.2 0.2-1.6 0.7-0.4 0.4-0.6 1.1-0.6 2l0 13.1c0 0.9 0.2 1.6 0.6 2.1 0.4 0.5 1 0.7 1.7 0.7 0.7 0 1.3-0.2 1.7-0.7l0 0c0.4-0.5 0.7-1.2 0.7-2.1l0-5.7c0-1.8 0.1-3.1 0.3-3.8l0 0c0.3-0.8 0.8-1.5 1.4-2 0.7-0.5 1.4-0.7 2.2-0.7 1.2 0 2 0.4 2.4 1.2 0.4 0.8 0.6 1.9 0.6 3.4l0 7.6c0 0.9 0.2 1.6 0.6 2.1 0.4 0.5 1 0.7 1.7 0.7 0.7 0 1.2-0.2 1.7-0.7 0.4-0.5 0.6-1.2 0.6-2.1l0-8.5c0-1 0-1.8-0.1-2.5-0.1-0.7-0.3-1.3-0.6-1.8-0.5-1-1.2-1.7-2.1-2.2-1-0.5-2-0.8-3.2-0.8-1.2 0-2.3 0.2-3.3 0.7-0.9 0.5-1.8 1.2-2.5 2.2l0-0.4c0-0.6-0.1-1-0.3-1.4l0 0c-0.2-0.4-0.5-0.7-0.8-0.9-0.3-0.2-0.7-0.3-1.1-0.3zm-58.6 0c-0.7 0-1.2 0.2-1.7 0.7-0.4 0.5-0.6 1.2-0.6 2.1l0 13c0 0.9 0.2 1.6 0.6 2.1 0.4 0.5 1 0.7 1.7 0.7 0.7 0 1.2-0.2 1.7-0.7 0.4-0.5 0.7-1.2 0.7-2.1l0-13.1c0-0.8-0.2-1.5-0.7-1.9-0.4-0.5-1-0.7-1.7-0.7zm27.5 0c-0.8 0-1.3 0.3-1.7 0.8-0.4 0.5-0.6 1.3-0.6 2.3l0 12.6c0 0.9 0.2 1.6 0.6 2.1 0.4 0.5 1 0.7 1.7 0.7 0.7 0 1.2-0.2 1.7-0.7 0.4-0.5 0.7-1.2 0.7-2.1l0-3.8c0-1.4 0-2.5 0.1-3.5 0.1-0.9 0.2-1.8 0.5-2.4 0.2-0.7 0.6-1.2 1-1.5 0.4-0.3 0.9-0.5 1.6-0.5 0.5 0 1 0.1 1.7 0.3 0.3 0.1 0.6 0.2 0.8 0.2 0.2 0.1 0.3 0.1 0.4 0.1 0.5 0 0.9-0.2 1.3-0.6 0.4-0.4 0.6-0.9 0.6-1.4 0-0.8-0.5-1.5-1.4-2-0.9-0.5-1.8-0.7-2.8-0.7-1 0-1.7 0.2-2.3 0.7-0.6 0.5-1.1 1.2-1.6 2 0-0.9-0.2-1.6-0.5-2-0.3-0.5-0.9-0.7-1.7-0.7zm87.2 0c-0.7 0-1.2 0.2-1.7 0.7-0.4 0.5-0.6 1.2-0.6 2.1l0 13c0 0.9 0.2 1.6 0.6 2.1 0.4 0.5 1 0.7 1.7 0.7 0.7 0 1.3-0.2 1.7-0.7 0.4-0.5 0.7-1.2 0.7-2.1l0-13.1c0-0.8-0.2-1.5-0.7-1.9-0.4-0.5-1-0.7-1.7-0.7zm22.8 3.3c1.2 0 2.1 0.4 2.8 1.1 0.7 0.7 1.1 1.9 1.2 3.4l-8.1 0c0.2-1.5 0.6-2.6 1.3-3.4 0.7-0.8 1.6-1.2 2.7-1.2zm-123 0.3c0.8 0 1.6 0.2 2.2 0.7 0.6 0.5 1.1 1.1 1.4 2 0.3 0.9 0.5 1.9 0.5 3.1 0 1.8-0.4 3.3-1.2 4.2-0.8 1-1.8 1.5-2.9 1.5-1.3 0-2.4-0.5-3.2-1.4-0.8-1-1.2-2.3-1.2-4.1 0-1.2 0.2-2.3 0.6-3.2 0.4-0.9 0.9-1.6 1.6-2 0.7-0.5 1.4-0.7 2.3-0.7zm34.6 6 0 0.6c0 1.6-0.2 2.7-0.6 3.4-0.3 0.6-0.9 1.1-1.6 1.5-0.8 0.4-1.6 0.6-2.5 0.6-0.8 0-1.5-0.2-2-0.7-0.5-0.5-0.8-1-0.8-1.7 0-0.7 0.2-1.1 0.6-1.5 0.4-0.4 0.9-0.6 1.4-0.7 0.5-0.1 1.4-0.3 2.6-0.6 1.2-0.3 2.2-0.5 2.8-0.8z"/><path d="m86.7 0.3c-22.5 0-40.8 18.3-40.8 40.8 0 2.7 0.3 5.5 0.9 8.2 0-0.1 0.1-0.3 0.1-0.4 8.5-38.3 41.1-22.7 43.4 4.1 9.4-11.9-11.6-29.5-1.3-39.6 6.5-6.3 18.8-1.5 29.5 3.1l0.8 0.3C112 6.7 100.1 0.3 86.7 0.3Z" fill="url(#superior-linearGradient4406)"/><path d="m110.1 17.7c-32.9-0.4 20.7 35.6-28.9 58.6 1.5-44.7-23.6-53.4-32.8-21.5 5.9 16.1 21.2 26.8 38.3 26.8 22.6 0 40.8-18.2 40.8-40.7 0-8.3-2.5-16-6.7-22.4l-0.7-0.1c-4-0.6-7.3-0.9-9.9-0.9z" fill="url(#superior-linearGradient4398)"/><path d="m24.2 117c-1.1 0-2.5 0.1-4.1 0.2-1.6 0.1-3.3 0.4-5.1 0.7-1.8 0.3-3.6 0.8-5.3 1.4-1.8 0.6-3.4 1.3-4.9 2.1-1.5 0.9-2.7 1.9-3.6 3.1-1 1.2-1.5 2.7-1.6 4.3-0.1 1.2 0.3 2.2 1 3.1 0.7 0.8 1.8 1.6 3.3 2.4l0 0c1.5 0.7 3.4 1.5 5.8 2.2 2.4 0.7 5.2 1.6 8.5 2.5 1.1 0.4 2.5 0.8 4 1.2 1.5 0.5 2.9 1 4.2 1.7l0 0c1.3 0.6 2.4 1.3 3.3 2.1 0.8 0.7 1.2 1.4 1.2 2.2 0 0.6-0.2 1-0.6 1.3-0.5 0.3-1.1 0.6-1.8 0.8-0.7 0.2-1.5 0.3-2.2 0.3-0.8 0-1.4 0-1.9 0-2.6 0-5.3-0.3-7.9-0.9-2.6-0.6-5.1-1.5-7.3-2.7l0 0 0 0c-0.3-0.1-0.7-0.4-1.2-0.6l0 0c-0.4-0.3-0.9-0.6-1.3-1l0 0c-0.4-0.4-0.8-0.7-1-1.1l0 0 0 0c-0.3-0.4-0.4-0.7-0.4-1.1 0-0.2 0.1-0.4 0.1-0.6l0 0c0.1-0.2 0.3-0.4 0.5-0.6 0.3-0.2 0.6-0.4 1-0.6 0.4-0.2 0.9-0.5 1.5-0.8l0 0 0 0c0.2-0.1 0.3-0.2 0.5-0.3 0.1-0.1 0.3-0.3 0.3-0.6 0-0.3-0.2-0.6-0.5-0.8-0.2-0.1-0.5-0.2-0.8-0.3l0 0 0 0c-0.2 0-0.4-0.1-0.6-0.1-0.8 0-1.6 0.1-2.2 0.4-0.6 0.3-1.2 0.6-1.6 1-0.4 0.4-0.8 0.9-1 1.5-0.2 0.5-0.4 1.1-0.4 1.6 0 1 0.3 2 0.8 2.9 0.5 0.8 1.2 1.6 2 2.3 0.8 0.7 1.7 1.3 2.6 1.8 0.9 0.5 1.8 0.9 2.7 1.3 2.3 0.9 4.7 1.7 7.2 2.2 2.5 0.5 5 0.8 7.7 0.8 1.2 0 2.3-0.1 3.5-0.3 1.1-0.2 2.1-0.6 3-1.1 0.9-0.5 1.6-1.1 2.2-1.9 0.6-0.8 0.9-1.8 0.9-2.9 0-1.2-0.3-2.3-1-3.3-0.6-0.9-1.4-1.8-2.4-2.5-1-0.7-2-1.4-3.1-2l0 0c-1.1-0.6-2.1-1-3-1.4l0 0 0 0c-1-0.4-2.2-0.8-3.6-1.2-1.4-0.4-3-0.9-4.6-1.3-1.6-0.4-3.2-0.9-4.8-1.3-1.6-0.5-3-0.9-4.2-1.4-1.2-0.5-2.2-1-2.9-1.5-0.7-0.5-0.9-0.8-0.8-1.1l0 0 0 0c0.1-0.8 0.4-1.5 1.2-2.2 0.8-0.7 1.8-1.3 3-1.9 1.3-0.5 2.6-1 4.2-1.4 1.6-0.4 3.1-0.7 4.6-1 1.5-0.2 2.9-0.4 4.2-0.5 1.3-0.1 2.4-0.2 3.1-0.2 0.8 0 1.8 0.1 3 0.2 1.2 0.1 2.3 0.3 3.4 0.5 1.1 0.2 2 0.5 2.7 0.9 0.3 0.2 0.6 0.4 0.7 0.5 0.1 0.2 0.2 0.3 0.2 0.4 0 0.1 0 0.1-0.3 0.2l0 0c-0.3 0.2-0.7 0.3-1.1 0.5-0.5 0.2-0.9 0.3-1.3 0.6l0 0c-0.5 0.3-0.8 0.7-0.8 1.2 0 0.3 0.2 0.7 0.5 0.8l0 0 0 0c0.2 0.1 0.5 0.3 0.7 0.3 0.3 0.1 0.5 0.2 0.7 0.2l0 0c0.2 0.1 0.4 0.1 0.5 0.1 1.3 0 2.5-0.4 3.6-1.1 1-0.8 1.6-1.9 1.6-3.3 0-1-0.3-1.9-0.9-2.7-0.6-0.7-1.3-1.3-2.2-1.9l0 0c-0.9-0.5-1.9-0.9-2.9-1.2-1.1-0.3-2.1-0.6-3.2-0.7l0 0c-1-0.2-2-0.3-3-0.4-0.9-0.1-1.7-0.1-2.3-0.1zm86.1 1.7c-0.3 0-0.5 0.1-0.7 0.3-0.2 0.2-0.3 0.4-0.4 0.6-0.2 0.5-0.3 1-0.4 1.7l0 0c-0.1 0.7-0.2 1.5-0.2 2.4l0 0c0 0.9-0.1 1.8-0.1 2.8-0.1 1.6-0.1 3.5-0.2 5.8 0 2.3-0.1 4.7-0.1 7.1 0 2.5 0 4.9 0.1 7.2 0.1 2.1 0.3 3.9 0.5 5.5-1.4 0.1-2.7 0.3-4.1 0.3-1.5 0.1-3 0.1-4.6 0.1l-1.6 0c-0.6 0-1.2 0.1-1.7 0.2l0 0c-0.5 0.1-1 0.3-1.4 0.5-0.4 0.3-0.7 0.8-0.7 1.4 0 0.4 0.1 0.7 0.4 1 0.2 0.3 0.6 0.4 0.9 0.6 0.7 0.2 1.5 0.4 2.3 0.4l0.4 0c0.2 0 0.6 0 1.3 0 0.6 0 1.6 0 2.9 0 1.3 0 3.1 0 5.4 0 2.3 0 5.2 0 8.7 0l12.9 0c0.3 0 0.8 0 1.2 0l0 0 0 0c0.5 0 1 0 1.5-0.1l0 0c0.5-0.1 0.9-0.2 1.3-0.5l0 0c0.4-0.3 0.7-0.8 0.7-1.3 0-0.6-0.2-1.1-0.6-1.5-0.3-0.4-0.8-0.7-1.2-1l0 0c-0.5-0.3-1-0.5-1.5-0.6-0.5-0.1-0.9-0.3-1.4-0.3l0 0 0 0c-1.7-0.2-3.4-0.2-5-0.2l0 0c-1.6 0-3.2 0.1-4.8 0.2-1.6 0.1-3.1 0.2-4.6 0.4-1.3 0.1-2.5 0.3-3.7 0.4 0.1-0.3 0.2-0.6 0.3-1 0.1-0.6 0.2-1.3 0.3-1.9 0.1-0.6 0.2-1.3 0.2-1.9 0.1-0.6 0.1-1.2 0.1-1.7l0 0 0 0c0-0.8 0-1.7 0.1-2.9 0-1.2 0.1-2.7 0.2-4.4 0.1-1.7 0.2-3.8 0.2-6.1 0.1-2.3 0.2-5 0.3-8.1l0 0c0-0.5 0-1-0.1-1.6-0.1-0.6-0.3-1.1-0.6-1.7-0.3-0.5-0.6-1-1-1.3l0 0 0 0c-0.5-0.4-1-0.6-1.6-0.6zm-48.2 10.8c-0.2 0-0.5 0-0.7 0.1-1 0.2-1.8 0.5-2.5 1.1-0.7 0.6-1 1.4-0.8 2.3 0.1 0.8 0.7 1.5 1.6 1.8 0.8 0.3 1.7 0.4 2.6 0.3l0 0 0 0c0.5-0.1 0.9-0.2 1.3-0.4 0.4-0.2 0.8-0.4 1.1-0.7 0.3-0.3 0.6-0.6 0.8-1l0 0c0.2-0.4 0.2-0.8 0.2-1.3-0.1-0.8-0.7-1.5-1.5-1.8-0.6-0.3-1.3-0.4-2-0.3zm63.1 0c-0.2 0-0.5 0-0.7 0.1-1 0.2-1.8 0.5-2.5 1.1-0.7 0.6-1 1.4-0.8 2.3 0.1 0.8 0.7 1.5 1.6 1.8 0.8 0.3 1.7 0.4 2.6 0.3l0 0 0 0c0.5-0.1 0.9-0.2 1.3-0.4 0.4-0.2 0.8-0.4 1.1-0.7 0.3-0.3 0.6-0.6 0.8-1 0.2-0.4 0.2-0.8 0.2-1.3-0.1-0.8-0.7-1.5-1.5-1.8l0 0c-0.6-0.3-1.3-0.4-2-0.3zm18.2 0c-0.2 0-0.5 0-0.7 0.1-1 0.2-1.8 0.5-2.5 1.1-0.7 0.6-1 1.4-0.8 2.3 0.1 0.8 0.7 1.5 1.6 1.8 0.8 0.3 1.7 0.4 2.6 0.3l0 0 0 0c0.5-0.1 0.9-0.2 1.3-0.4 0.4-0.2 0.8-0.4 1.1-0.7 0.3-0.3 0.6-0.6 0.8-1l0 0c0.2-0.4 0.2-0.8 0.2-1.3-0.1-0.8-0.7-1.5-1.5-1.8-0.6-0.3-1.3-0.4-2-0.3zm-102.4 3.4c-1 0-1.9 0.5-2.6 1.4-0.7 0.9-1.3 1.9-1.7 3.2-0.4 1.3-0.7 2.6-0.9 4-0.1 1.4-0.1 2.8 0.1 4.1 0.2 1.3 0.7 2.4 1.4 3.2 0.7 0.9 1.8 1.4 3.1 1.4 1 0 2-0.2 2.8-0.7 0.8-0.4 1.6-1 2.2-1.7 0.6-0.7 1.2-1.4 1.6-2.2 0 0 0 0 0 0 0 0.3 0 0.7 0 0.9 0 0.6 0.2 1.2 0.7 1.5 0.4 0.3 0.9 0.4 1.4 0.4 0.5 0 1-0.1 1.4-0.4 0.5-0.3 0.8-0.7 0.9-1.3l0 0 0 0c0-0.3 0.1-0.8 0.2-1.3 0.1-0.5 0.3-1.1 0.4-1.6l0 0c0-0.1 0.1-0.2 0.1-0.4 0 0.4 0 0.8 0.1 1.2 0.1 0.7 0.4 1.3 0.9 1.9 0.5 0.6 1.4 0.9 2.4 0.9 0.7 0 1.4-0.4 2-1 0.5-0.5 0.9-1 1.3-1.6 0.1 0.8 0.3 1.5 0.6 2.1 0.4 0.8 1.2 1.4 2.1 1.7l0 0 0 0c0.7 0.2 1.4 0.1 2-0.2 0.5-0.3 1-0.8 1.5-1.3 0.4-0.5 0.8-1.1 1.1-1.8 0.3 0.4 0.6 0.8 1 1.2 0.8 0.7 1.9 1 3.2 1 1.1 0 2.2-0.3 3-1l0 0c0.8-0.6 1.4-1.4 1.9-2.3 0.4-0.9 0.7-1.9 0.7-3 0.1-1.1-0.1-2.1-0.4-3-0.3-1-0.9-1.8-1.7-2.5-0.8-0.7-1.8-1.1-3-1.1l0 0c-1.1-0.1-2 0.2-2.8 0.9l0 0c-0.8 0.6-1.4 1.4-1.8 2.4-0.2 0.3-0.3 0.7-0.4 1.1-0.3 0.2-0.4 0.5-0.5 0.8l0 0 0 0c-0.1 0.3-0.2 0.8-0.4 1.5-0.2 0.7-0.5 1.3-0.7 2-0.2 0.7-0.5 1.2-0.8 1.7-0.1 0.2-0.2 0.3-0.2 0.3 0-0.1-0.1-0.1-0.1-0.3-0.1-0.5-0.1-1.2-0.1-2l0 0c0-0.8 0.1-1.6 0.2-2.4 0.1-0.9 0.2-1.6 0.4-2.1l0 0 0 0c0.1-0.6-0.1-1.3-0.5-1.7l0 0c-0.4-0.4-1-0.7-1.5-0.8-0.1 0-0.3 0-0.4 0-0.4 0-0.9 0.2-1.2 0.4-0.6 0.4-0.8 1.1-0.8 2 0 0.3 0 0.5 0 0.8-0.1 0.2-0.3 0.4-0.3 0.6l0 0c-0.1 0.4-0.3 0.8-0.6 1.4-0.3 0.5-0.5 1.1-0.9 1.5-0.3 0.5-0.6 0.9-0.9 1.2-0.2 0.2-0.1 0.2-0.2 0.2 0 0 0 0 0-0.1l0 0c-0.1-0.4-0.1-1-0.1-1.6 0-0.6 0-1.2 0.1-1.8l0 0c0.1-0.6 0.2-1 0.2-1.3l0 0c0.1-0.3 0.2-0.5 0.1-0.8 0-0.3-0.2-0.5-0.4-0.7l0 0 0 0c-0.4-0.3-0.8-0.5-1.3-0.5l0 0c-0.5 0-1 0.1-1.5 0.3-0.5 0.2-0.9 0.5-1.3 0.9l0 0 0 0c-0.2 0.3-0.5 0.8-0.7 1.2 0.1-0.4 0.1-0.8 0.2-1.2 0.1-0.6 0.2-1.1 0.3-1.5l0 0 0 0c0.1-0.6-0.2-1.2-0.7-1.5l0 0c-0.4-0.3-1-0.4-1.5-0.4l0 0c-0.6 0-1.1 0.3-1.6 0.6-0.6 0.4-0.9 1-1 1.8-0.1 0.5-0.2 1.1-0.2 1.7-0.1 0.2-0.2 0.3-0.3 0.5l0 0 0 0c0 0.2-0.2 0.5-0.4 1-0.2 0.5-0.5 1-0.8 1.6l0 0c-0.3 0.6-0.7 1.2-1.1 1.8-0.4 0.6-0.8 1.2-1.2 1.6-0.4 0.4-0.8 0.8-1.3 1l0 0c-0.4 0.2-0.7 0.3-1 0.2l0 0c-0.2-0.1-0.3-0.2-0.4-0.4l0 0c-0.1-0.3-0.3-0.7-0.3-1.1-0.1-0.5-0.1-1-0.1-1.6 0-0.5 0.1-1 0.1-1.5 0.3 0 0.5-0.1 0.8-0.1 0.5-0.1 1-0.2 1.5-0.3 0.5-0.2 0.9-0.4 1.3-0.6l0 0c0.4-0.3 0.8-0.6 1.1-1 0.4-0.5 0.6-1.2 0.5-2.1-0.1-0.8-0.3-1.6-0.6-2.3l0 0c-0.3-0.8-0.9-1.4-1.5-2-0.5-0.6-1.3-1-2.2-1zm123.7 1c-1.1 0-2.1 0.4-2.9 1.1-0.8 0.7-1.4 1.6-1.9 2.7-0.2 0.4-0.3 0.8-0.5 1.3-0.3 0.2-0.4 0.5-0.5 0.8-0.1 0.4-0.3 0.8-0.6 1.4-0.3 0.5-0.6 1.1-0.9 1.5-0.3 0.5-0.6 0.9-0.9 1.2-0.2 0.2-0.1 0.2-0.2 0.2 0 0 0 0 0-0.1l0 0 0 0c-0.1-0.4-0.1-1-0.1-1.6 0-0.6 0-1.2 0.1-1.8 0.1-0.6 0.2-1 0.2-1.2l0 0c0.1-0.3 0.2-0.5 0.1-0.8 0-0.3-0.2-0.5-0.4-0.7l0 0 0 0c-0.4-0.3-0.8-0.5-1.3-0.5-0.5 0-1 0.1-1.5 0.3-0.5 0.2-0.9 0.5-1.3 0.9l0 0 0 0c-0.2 0.3-0.5 0.8-0.7 1.2 0.1-0.4 0.1-0.8 0.2-1.2l0 0c0.1-0.6 0.2-1.1 0.3-1.5l0 0 0 0c0.1-0.6-0.2-1.2-0.7-1.5l0 0c-0.4-0.3-1-0.4-1.5-0.4-0.6 0-1.1 0.3-1.6 0.6-0.6 0.4-0.9 1-1 1.8-0.1 0.5-0.2 1.1-0.2 1.7-0.1 0.2-0.2 0.4-0.3 0.6l0 0 0 0c-0.1 0.3-0.2 0.8-0.4 1.5-0.2 0.7-0.5 1.3-0.7 2-0.2 0.7-0.5 1.2-0.8 1.7-0.1 0.2-0.2 0.3-0.2 0.3 0-0.1-0.1-0.1-0.1-0.3-0.1-0.5-0.1-1.2-0.1-2l0 0c0-0.8 0.1-1.6 0.2-2.4 0.1-0.9 0.2-1.6 0.4-2.1l0 0 0 0c0.1-0.6-0.1-1.3-0.5-1.7-0.4-0.4-1-0.7-1.5-0.8l0 0c-0.1 0-0.3 0-0.4 0-0.4 0-0.9 0.2-1.2 0.4-0.6 0.4-0.8 1.1-0.8 2 0 1 0 2-0.1 3.1-0.1 1.1-0.1 2.1 0 3 0.1 1 0.3 1.8 0.7 2.6 0.4 0.8 1.2 1.4 2.1 1.7l0 0 0 0c0.7 0.2 1.4 0.1 2-0.2 0.5-0.3 1-0.8 1.5-1.3 0.2-0.2 0.4-0.5 0.5-0.8 0 0.1 0 0.1 0 0.2 0 0.6 0.2 1.2 0.7 1.5 0.4 0.3 0.9 0.4 1.4 0.4 0.5 0 1-0.1 1.4-0.4 0.5-0.3 0.8-0.7 0.9-1.3l0 0 0 0c0-0.3 0.1-0.8 0.2-1.3 0.1-0.5 0.3-1.1 0.4-1.6l0 0c0-0.1 0.1-0.2 0.1-0.4 0 0.4 0 0.8 0.1 1.2 0.1 0.7 0.4 1.3 0.9 1.9 0.5 0.6 1.4 0.9 2.4 0.9 0.7 0 1.4-0.4 2-1 0.5-0.5 1-1.1 1.4-1.7 0.3 1 0.7 1.8 1.4 2.5 0.6 0.6 1.5 0.9 2.4 1-0.7 0.3-1.5 0.6-2.1 1-0.9 0.6-1.5 1.3-1.9 2.2-0.4 0.9-0.4 2 0.2 3.1l0 0 0 0c0.4 0.7 1 1.3 2 1.7 0.9 0.4 1.9 0.5 3 0.3 1.1-0.2 2.1-0.7 3.1-1.4 1-0.8 1.8-2.1 2.3-3.8l0 0 0 0c0.2-0.6 0.3-1.1 0.4-1.6l0 0c0.1-0.5 0.2-1 0.2-1.4 0.9-0.9 1.8-1.9 2.6-3.2 0.9-1.3 1.6-3 2.2-4.9l0 0c0.1-0.4 0.1-0.8-0.1-1.2l0 0c-0.2-0.3-0.4-0.5-0.8-0.6-0.3-0.1-0.7-0.1-1 0.1l0 0c-0.4 0.2-0.6 0.5-0.7 0.9-0.6 1.6-1.3 2.9-2 4.1 0-0.5 0-1 0-1.5 0-1.2 0.1-2.5 0.3-4.1l0 0 0 0c0-0.4 0-0.9-0.3-1.2-0.2-0.3-0.5-0.6-0.9-0.7l0 0c-0.3-0.1-0.7-0.2-1-0.2l0 0c-0.2 0-0.5 0-0.7 0.1-0.3-0.6-0.7-1.1-1.3-1.5-0.6-0.4-1.3-0.7-2-0.7zm-32.5 1.1c-0.3 0-0.5 0-0.8 0l0 0c-0.6 0.1-1.1 0.3-1.6 0.6l0 0c-0.5 0.4-0.9 1-0.9 1.6-0.1 0.7-0.1 1.3-0.2 2-0.1 0.1-0.2 0.3-0.2 0.5l0 0 0 0c-0.1 0.3-0.2 0.8-0.4 1.5-0.2 0.7-0.5 1.3-0.7 2-0.3 0.7-0.5 1.2-0.8 1.7-0.1 0.2-0.2 0.3-0.2 0.3 0-0.1-0.1-0.1-0.1-0.3-0.1-0.5-0.1-1.2-0.1-2l0 0c0-0.8 0.1-1.6 0.2-2.4 0.1-0.9 0.2-1.6 0.4-2.1l0 0 0 0c0.1-0.6-0.1-1.3-0.5-1.7l0 0c-0.4-0.4-1-0.7-1.5-0.8-0.1 0-0.3 0-0.4 0-0.4 0-0.9 0.2-1.2 0.4-0.6 0.4-0.8 1.1-0.8 2 0 1 0 2-0.1 3.1-0.1 1.1-0.1 2.1 0 3 0.1 1 0.3 1.8 0.7 2.6 0.4 0.8 1.2 1.4 2.1 1.7l0 0 0 0c0.7 0.2 1.4 0.1 2-0.2 0.5-0.3 1-0.8 1.5-1.3 0.4-0.6 0.8-1.2 1.1-1.9 0 0 0-0.1 0-0.1 0.3 0.9 0.8 1.6 1.4 2.2 0.7 0.7 1.6 1.1 2.6 1 0.8 0 1.5-0.3 2.2-0.9 0.6-0.5 1.1-1.2 1.5-2l0 0c0.4-0.8 0.7-1.6 1-2.5l0 0c0.3-0.9 0.5-1.7 0.6-2.5 0.1-0.8 0.3-1.5 0.3-2.1 0.1-0.6 0.1-1 0.1-1.2l0 0 0 0c0-0.4-0.1-0.9-0.5-1.2l0 0c-0.3-0.2-0.6-0.3-1-0.3-0.4 0-0.7 0.1-1 0.3-0.4 0.2-0.6 0.7-0.6 1.1 0 0.3-0.1 0.9-0.2 1.8-0.1 0.9-0.3 1.8-0.5 2.7-0.2 0.9-0.4 1.7-0.7 2.4l0 0c-0.1 0.3-0.3 0.6-0.3 0.7 0 0 0 0 0 0 0 0 0 0 0 0-0.1-0.1-0.2-0.3-0.3-0.6l0 0c-0.2-0.6-0.4-1.3-0.6-2.2-0.1-0.9-0.2-1.8-0.2-2.9 0-1 0.1-1.9 0.3-2.8l0 0 0 0c0.1-0.3 0-0.6-0.2-0.8-0.2-0.2-0.4-0.3-0.7-0.4-0.2-0.1-0.5-0.1-0.7-0.1zm-53.3 0.5c-0.5 0-1 0.2-1.3 0.5l0 0c-0.4 0.3-0.6 0.6-0.8 1-0.2 0.4-0.3 0.9-0.2 1.3 0 0.4 0.2 0.7 0.5 1l-0.2 0.6c-0.2 0.4-0.2 0.8 0.1 1.2 0.2 0.3 0.5 0.5 0.8 0.5 0.3 0.1 0.7 0 1-0.1 0.3-0.2 0.6-0.5 0.7-0.9-0.2 0.6-0.3 1.2-0.4 1.9-0.1 1.1-0.2 2.1-0.1 3 0.1 1 0.3 1.8 0.7 2.5 0.4 0.8 1.2 1.3 2.1 1.3 0.8 0 1.5-0.2 2.1-0.6 0.6-0.4 1.1-0.9 1.6-1.6 0.5-0.6 0.9-1.3 1.2-2.1 0.3-0.7 0.6-1.4 0.8-2.1 0.2-0.7 0.4-1.3 0.5-1.8l0 0c0.1-0.5 0.2-0.9 0.2-1.1l0 0 0 0c0-0.4 0-0.8-0.3-1.1l0 0 0 0c-0.2-0.3-0.6-0.4-0.9-0.5l0 0 0 0c-0.3 0-0.7 0.1-0.9 0.2-0.3 0.2-0.6 0.6-0.6 1l0 0 0 0c-0.1 0.3-0.2 0.9-0.5 1.6-0.3 0.7-0.5 1.5-0.8 2.2l0 0c-0.3 0.7-0.6 1.4-0.9 1.9-0.1 0.2-0.2 0.3-0.3 0.4 0-0.1 0-0.1-0.1-0.2l0 0c-0.1-0.5-0.1-1 0-1.7l0 0c0.1-0.7 0.2-1.4 0.3-2.2l0 0c0.1-0.8 0.3-1.5 0.4-2l0 0c0.1-0.3 0.1-0.6 0.1-0.9 0-0.3-0.2-0.6-0.5-0.7l0 0c-0.4-0.2-0.8-0.3-1.2-0.3-0.4 0-0.8 0.1-1.3 0.1l0 0c-0.2 0-0.2 0-0.3 0 0.1-0.4 0.3-0.9 0.2-1.3 0-0.4-0.2-0.7-0.5-0.9-0.3-0.2-0.7-0.3-1.1-0.3zm-37.3 1c0 0.1 0.1 0.3 0.1 0.5 0 0.4 0 0.7 0 1 0 0.3-0.1 0.5-0.2 0.6l0 0 0 0c-0.1 0.1-0.2 0.2-0.5 0.3-0.1 0-0.2 0-0.3 0 0.2-0.7 0.3-1.4 0.5-1.9 0.1-0.2 0.2-0.4 0.2-0.5zm123.5 0.4c0 0 0.1 0 0.2 0 0.2 0 0.4 0.2 0.6 0.6 0.2 0.5 0.4 1 0.5 1.7 0.1 0.7 0.1 1.5 0 2.3-0.1 0.8-0.3 1.6-0.5 2.3-0.1 0.2-0.2 0.4-0.3 0.7-0.1 0.2-0.2 0.4-0.3 0.6-0.1 0.2-0.2 0.3-0.3 0.4-0.1 0.1-0.2 0.1-0.3 0.1-0.4 0-0.5-0.1-0.7-0.5-0.2-0.4-0.4-1-0.5-1.7l0 0c-0.1-0.7-0.1-1.4 0-2.3l0 0c0.1-0.8 0.3-1.6 0.5-2.3 0.2-0.7 0.5-1.2 0.8-1.6 0.2-0.3 0.3-0.4 0.5-0.4zm-94.1 0.5c0.2 0 0.3 0.1 0.5 0.4 0.2 0.4 0.4 0.8 0.5 1.4 0.1 0.6 0.2 1.2 0.2 1.9 0 0.7 0 1.3-0.1 1.9-0.1 0.5-0.2 1-0.4 1.3-0.2 0.3-0.2 0.3-0.4 0.3l0 0 0 0c-0.3 0-0.4-0.1-0.6-0.4l0 0c-0.2-0.4-0.4-0.8-0.5-1.4l0 0c-0.1-0.6-0.2-1.2-0.2-1.8 0-0.7 0.1-1.3 0.2-1.8 0.1-0.5 0.3-1 0.4-1.3 0.2-0.3 0.3-0.3 0.4-0.3zm94.3 13.2c-0.3 1-0.6 1.8-1 2.2-0.4 0.6-0.8 0.8-1.1 0.9-0.3 0.1-0.4 0.1-0.5-0.1l0 0c-0.1-0.1-0.2-0.3-0.1-0.7l0 0 0 0c0.1-0.8 0.5-1.3 1.2-1.8 0.5-0.3 1-0.4 1.6-0.6z" fill="#1a438e"/></svg>