<svg width="0" height="0" viewBox="0 0 465 308">
    <defs>
		<clipPath id="half-circle-left" clipPathUnits="objectBoundingBox" transform="scale(0.002150537634409 0.003246753246753)">
        	<path d="M7.95728007,-6.13792301e-06 L452.000334,-0.000408225839 C454.761758,-0.000410664296 457.000336,2.23816361 457.000338,4.99958736 C457.000338,4.99959068 457.000338,4.99959401 457.000338,4.99959734 L457.000006,294.989053 C457.000003,297.750476 454.761424,299.98905 452,299.989047 C451.996355,299.989047 451.99271,299.989043 451.989065,299.989035 L-2.84217094e-14,299 C15.1902252,260.325821 22.5943975,210.657277 22.2125167,149.994366 C21.8514642,92.6400842 15.5131123,44.8189751 3.19746102,6.53103859 L3.19745561,6.53104033 C2.35188513,3.90225943 3.7974628,1.08574114 6.4262437,0.240170668 C6.92100488,0.0810263863 7.43755367,-5.6789821e-06 7.95728007,-6.13792301e-06 Z"></path>
		</clipPath>
    </defs>
</svg>