<svg xmlns="http://www.w3.org/2000/svg" width="85" height="85" viewBox="0 0 85.5 85.2" version="1"><metadata/><defs><linearGradient xlink:href="#logo-colored-mobile-SVGID_3_" id="logo-colored-mobile-linearGradient4406" x1="194.7" y1="103.7" x2="268.1" y2="103.7" gradientUnits="userSpaceOnUse" gradientTransform="matrix(1.0058823,0,0,1.0058823,-194.20114,-76.010564)"/><linearGradient y2="25.5" x2="120" y1="25.5" x1="34.9" gradientUnits="userSpaceOnUse" id="logo-colored-mobile-SVGID_3_"><stop offset="0" stop-color="#1A438E"/><stop offset="0.1099" stop-color="#304D94"/><stop offset="0.3362" stop-color="#5667A5"/><stop offset="0.6598" stop-color="#959BC7"/><stop offset="1" stop-color="#FFF"/></linearGradient><linearGradient xlink:href="#logo-colored-mobile-SVGID_4_" id="logo-colored-mobile-linearGradient4398" x1="197.1" y1="126.8" x2="276.2" y2="126.8" gradientUnits="userSpaceOnUse" gradientTransform="matrix(1.0058823,0,0,1.0058823,-194.20114,-76.010564)"/><linearGradient y2="52.6" x2="133.2" y1="52.6" x1="48.3" gradientUnits="userSpaceOnUse" id="logo-colored-mobile-SVGID_4_"><stop offset="0" stop-color="#F9C300"/><stop offset="0.0687" stop-color="#F8BE09"/><stop offset="0.1657" stop-color="#F5AF1D"/><stop offset="0.2796" stop-color="#F09A2A"/><stop offset="0.4053" stop-color="#EA7E33"/><stop offset="0.4848" stop-color="#E76A36"/><stop offset="0.6235" stop-color="#E26835"/><stop offset="0.7069" stop-color="#D46332"/><stop offset="0.7756" stop-color="#BF5B2E"/><stop offset="0.8364" stop-color="#A45027"/><stop offset="0.8914" stop-color="#85431E"/><stop offset="0.9333" stop-color="#6C3715"/></linearGradient></defs><path d="m42.6 1.8c-22.6 0-41 18.4-41 41 0 2.7 0.3 5.5 0.9 8.2 0-0.1 0.1-0.3 0.1-0.4C11.1 12.1 43.9 27.8 46.3 54.7 55.8 42.7 34.6 25 45 14.9c6.5-6.3 18.9-1.5 29.7 3.1l0.8 0.3C68.1 8.3 56.1 1.8 42.6 1.8Z" fill="url(#logo-colored-mobile-linearGradient4406)"/><path d="M66.2 19.3C33.1 18.9 87 55.1 37.1 78.3 38.6 33.3 13.4 24.6 4.1 56.7 10 72.9 25.4 83.7 42.6 83.7c22.7 0 41-18.3 41-40.9 0-8.3-2.5-16.1-6.7-22.5l-0.7-0.1c-4-0.6-7.3-0.9-10-0.9z" fill="url(#logo-colored-mobile-linearGradient4398)"/></svg>