<svg xmlns="http://www.w3.org/2000/svg" width="85" height="85" viewBox="0 0 85.5 85.2"><path d="M42.6 1.8C20 1.8 1.6 20.2 1.6 42.8 1.6 45.5 1.9 48.3 2.5 51 2.5 50.9 2.6 50.7 2.6 50.6 11.1 12.1 43.9 27.8 46.3 54.7 55.8 42.7 34.6 25 45 14.9 51.5 8.6 63.9 13.4 74.7 18L75.5 18.3C68.1 8.3 56.1 1.8 42.6 1.8zM66.2 19.3C33.1 18.9 87 55.1 37.1 78.3 38.6 33.3 13.4 24.6 4.1 56.7 10 72.9 25.4 83.7 42.6 83.7 65.3 83.7 83.6 65.4 83.6 42.8 83.6 34.5 81.1 26.7 76.9 20.3L76.2 20.2C72.2 19.6 68.9 19.3 66.2 19.3z"/></svg>