<?xml version="1.0" encoding="UTF-8" standalone="no"?>
<svg
   xmlns:dc="http://purl.org/dc/elements/1.1/"
   xmlns:cc="http://creativecommons.org/ns#"
   xmlns:rdf="http://www.w3.org/1999/02/22-rdf-syntax-ns#"
   xmlns:svg="http://www.w3.org/2000/svg"
   xmlns="http://www.w3.org/2000/svg"
   xmlns:xlink="http://www.w3.org/1999/xlink"
   xmlns:sodipodi="http://sodipodi.sourceforge.net/DTD/sodipodi-0.dtd"
   xmlns:inkscape="http://www.inkscape.org/namespaces/inkscape"
   width="272"
   height="96.973671"
   viewBox="0 0 271.6 97.320005"
   id="svg2"
   version="1.1"
   inkscape:version="0.91 r13725"
   sodipodi:docname="logo-horizontal.svg">
  <sodipodi:namedview
     pagecolor="#ffffff"
     bordercolor="#666666"
     borderopacity="1"
     objecttolerance="10"
     gridtolerance="10"
     guidetolerance="10"
     inkscape:pageopacity="0"
     inkscape:pageshadow="2"
     inkscape:window-width="1108"
     inkscape:window-height="633"
     id="namedview54"
     showgrid="false"
     inkscape:zoom="1.1397059"
     inkscape:cx="229.61077"
     inkscape:cy="118.97932"
     inkscape:window-x="0"
     inkscape:window-y="0"
     inkscape:window-maximized="0"
     inkscape:current-layer="svg2"
     showguides="false" />
  <metadata
     id="metadata4">
    <rdf:RDF>
      <cc:Work
         rdf:about="">
        <dc:format>image/svg+xml</dc:format>
        <dc:type
           rdf:resource="http://purl.org/dc/dcmitype/StillImage" />
        <dc:title></dc:title>
      </cc:Work>
    </rdf:RDF>
  </metadata>
  <defs
     id="defs6">
    <linearGradient
       xlink:href="#logo-horizontal-SVGID_3_"
       id="logo-horizontal-linearGradient4406"
       x1="194.7"
       y1="103.7"
       x2="268.10001"
       y2="103.7"
       gradientUnits="userSpaceOnUse"
       gradientTransform="matrix(0.99747479,0,0,0.99747479,-191.60294,-75.3292)" />
    <linearGradient
       y2="25.5"
       x2="120"
       y1="25.5"
       x1="34.900002"
       gradientUnits="userSpaceOnUse"
       id="logo-horizontal-SVGID_3_">
      <stop
         offset="0"
         stop-color="#1A438E"
         id="stop10" />
      <stop
         offset="0.1099"
         stop-color="#304D94"
         id="stop12" />
      <stop
         offset="0.3362"
         stop-color="#5667A5"
         id="stop14" />
      <stop
         offset="0.6598"
         stop-color="#959BC7"
         id="stop16" />
      <stop
         offset="1"
         stop-color="#FFF"
         id="stop18" />
    </linearGradient>
    <linearGradient
       xlink:href="#logo-horizontal-SVGID_4_"
       id="logo-horizontal-linearGradient4398"
       x1="197.10001"
       y1="126.8"
       x2="276.20001"
       y2="126.8"
       gradientUnits="userSpaceOnUse"
       gradientTransform="matrix(0.99747479,0,0,0.99747479,-191.60294,-75.3292)" />
    <linearGradient
       y2="52.599998"
       x2="133.2"
       y1="52.599998"
       x1="48.299999"
       gradientUnits="userSpaceOnUse"
       id="logo-horizontal-SVGID_4_">
      <stop
         offset="0"
         stop-color="#F9C300"
         id="stop22" />
      <stop
         offset="0.0687"
         stop-color="#F8BE09"
         id="stop24" />
      <stop
         offset="0.1657"
         stop-color="#F5AF1D"
         id="stop26" />
      <stop
         offset="0.2796"
         stop-color="#F09A2A"
         id="stop28" />
      <stop
         offset="0.4053"
         stop-color="#EA7E33"
         id="stop30" />
      <stop
         offset="0.4848"
         stop-color="#E76A36"
         id="stop32" />
      <stop
         offset="0.6235"
         stop-color="#E26835"
         id="stop34" />
      <stop
         offset="0.7069"
         stop-color="#D46332"
         id="stop36" />
      <stop
         offset="0.7756"
         stop-color="#BF5B2E"
         id="stop38" />
      <stop
         offset="0.8364"
         stop-color="#A45027"
         id="stop40" />
      <stop
         offset="0.8914"
         stop-color="#85431E"
         id="stop42" />
      <stop
         offset="0.9333"
         stop-color="#6C3715"
         id="stop44" />
    </linearGradient>
    <linearGradient
       xlink:href="#logo-horizontal-SVGID_3_"
       id="logo-horizontal-linearGradient4406-2"
       x1="194.7"
       y1="103.7"
       x2="268.10001"
       y2="103.7"
       gradientUnits="userSpaceOnUse"
       gradientTransform="matrix(0.9974748,0,0,0.9974748,-125.4138,-195.50096)" />
    <linearGradient
       xlink:href="#logo-horizontal-SVGID_4_"
       id="logo-horizontal-linearGradient4398-9"
       x1="197.10001"
       y1="126.8"
       x2="276.20001"
       y2="126.8"
       gradientUnits="userSpaceOnUse"
       gradientTransform="matrix(0.9974748,0,0,0.9974748,-125.4138,-195.50096)" />
    <filter
       style="color-interpolation-filters:sRGB"
       inkscape:label="Drop Shadow"
       id="filter4322">
      <feFlood
         flood-opacity="0.196078"
         flood-color="rgb(0,0,0)"
         result="flood"
         id="feFlood4324" />
      <feComposite
         in="flood"
         in2="SourceGraphic"
         operator="in"
         result="composite1"
         id="feComposite4326" />
      <feGaussianBlur
         in="composite1"
         stdDeviation="4"
         result="blur"
         id="feGaussianBlur4328" />
      <feOffset
         dx="0"
         dy="2"
         result="offset"
         id="feOffset4330" />
      <feComposite
         in="SourceGraphic"
         in2="offset"
         operator="over"
         result="fbSourceGraphic"
         id="feComposite4332" />
      <feColorMatrix
         result="fbSourceGraphicAlpha"
         in="fbSourceGraphic"
         values="0 0 0 -1 0 0 0 0 -1 0 0 0 0 -1 0 0 0 0 1 0"
         id="feColorMatrix4334" />
      <feFlood
         id="feFlood4336"
         flood-opacity="0.196078"
         flood-color="rgb(0,0,0)"
         result="flood"
         in="fbSourceGraphic" />
      <feComposite
         id="feComposite4338"
         in2="fbSourceGraphic"
         in="flood"
         operator="in"
         result="composite1" />
      <feGaussianBlur
         id="feGaussianBlur4340"
         in="composite1"
         stdDeviation="4"
         result="blur" />
      <feOffset
         id="feOffset4342"
         dx="0"
         dy="2"
         result="offset" />
      <feComposite
         id="feComposite4344"
         in2="offset"
         in="fbSourceGraphic"
         operator="over"
         result="composite2" />
    </filter>
  </defs>
  <g
     id="g4256"
     style="filter:url(#filter4322)"
     transform="translate(0,6.2100006)">
    <path
       id="path46"
       d="m 128.4,11.6 c -0.7,0 -1.2,0.2 -1.6,0.7 -0.4,0.5 -0.6,1.2 -0.6,2.1 l 0,19.8 c 0,0.9 0.2,1.5 0.6,2 0.4,0.5 0.9,0.7 1.6,0.7 0.6,0 1.2,-0.2 1.6,-0.7 0.4,-0.5 0.6,-1.1 0.6,-2 l 0,-0.3 c 0.4,0.5 0.8,0.9 1.1,1.2 0.3,0.3 0.7,0.6 1.1,0.8 0.4,0.3 1,0.5 1.6,0.7 0.6,0.2 1.3,0.3 2,0.3 1.2,0 2.2,-0.2 3.2,-0.7 1,-0.5 1.8,-1.1 2.4,-2 0.7,-0.8 1.2,-1.9 1.5,-3 0.4,-1.2 0.5,-2.4 0.5,-3.8 0,-1.9 -0.3,-3.5 -0.9,-4.9 -0.6,-1.4 -1.5,-2.4 -2.7,-3.1 -1.1,-0.7 -2.5,-1.1 -4,-1.1 -1.3,0 -2.4,0.2 -3.3,0.7 -0.9,0.5 -1.7,1.1 -2.5,2 l 0,-6.8 c 0,-0.8 -0.2,-1.5 -0.6,-2 -0.4,-0.5 -1,-0.7 -1.7,-0.7 z m -30.1,0 c -0.7,0 -1.3,0.2 -1.8,0.7 -0.5,0.5 -0.7,1 -0.7,1.6 0,0.2 0,0.5 0.1,0.8 0.1,0.3 0.2,0.6 0.3,0.9 0.1,0.3 0.2,0.6 0.3,0.8 l 5.8,15.8 c 0.2,0.6 0.4,1.2 0.6,1.7 0.2,0.5 0.5,1 0.7,1.5 0.3,0.4 0.7,0.8 1.1,1.1 0.5,0.3 1,0.4 1.7,0.4 0.7,0 1.2,-0.1 1.7,-0.4 0.5,-0.3 0.8,-0.6 1.1,-1 0.3,-0.4 0.5,-0.9 0.7,-1.5 0.2,-0.5 0.4,-1.1 0.6,-1.7 l 0,0 5.9,-15.9 c 0.1,-0.3 0.2,-0.6 0.3,-0.8 0.1,-0.3 0.2,-0.6 0.3,-0.8 0.1,-0.3 0.1,-0.6 0.1,-0.8 0,-0.4 -0.1,-0.7 -0.3,-1.1 -0.2,-0.4 -0.5,-0.6 -0.9,-0.9 -0.4,-0.2 -0.8,-0.3 -1.2,-0.3 -0.6,0 -1.1,0.1 -1.4,0.4 -0.3,0.3 -0.6,0.6 -0.7,0.9 -0.1,0.3 -0.4,0.9 -0.7,1.8 L 106.7,31 101.3,14.8 c -0.4,-1.1 -0.8,-1.9 -1.1,-2.4 -0.4,-0.6 -1,-0.8 -1.9,-0.8 z m 149,0 c -1.5,0 -2.7,0.2 -3.6,0.6 -0.9,0.4 -1.5,1 -1.9,1.9 -0.4,0.9 -0.5,2 -0.5,3.4 l 0,1.3 -1,0 c -0.8,0 -1.3,0.1 -1.7,0.4 -0.4,0.3 -0.6,0.7 -0.6,1.3 0,0.5 0.2,0.9 0.6,1.2 0.4,0.3 0.9,0.5 1.6,0.5 l 1.2,0 0,12 c 0,0.9 0.2,1.6 0.7,2.1 0.4,0.5 1,0.7 1.7,0.7 0.7,0 1.3,-0.2 1.7,-0.7 0.4,-0.5 0.7,-1.2 0.7,-2.1 l 0,-12 1.1,0 c 0.8,0 1.5,-0.1 1.9,-0.3 l 0,0 c 0.2,-0.1 0.4,-0.3 0.6,-0.5 0.1,-0.2 0.2,-0.6 0.2,-0.9 0,-0.5 -0.2,-1 -0.7,-1.2 -0.4,-0.3 -1.1,-0.4 -2,-0.4 l -1.1,0 0,-1 c 0,-0.9 0.1,-1.6 0.3,-2 0.2,-0.5 0.7,-0.7 1.5,-0.7 0.3,0 0.7,0 1.1,0.1 0.4,0.1 0.7,0.1 0.9,0.1 0.4,0 0.7,-0.2 1,-0.5 0.3,-0.3 0.4,-0.7 0.4,-1.1 0,-0.7 -0.4,-1.2 -1,-1.5 -0.7,-0.3 -1.7,-0.5 -3,-0.5 z m -30.7,0 c -0.7,0 -1.4,0.3 -1.8,0.8 -0.5,0.5 -0.7,1.3 -0.7,2.3 l 0,18.8 c 0,1.1 0.2,1.9 0.7,2.4 0.5,0.5 1.3,0.7 2.4,0.7 l 11.9,0 c 0.8,0 1.5,-0.2 1.9,-0.6 0.4,-0.4 0.7,-0.9 0.7,-1.5 0,-0.6 -0.2,-1.1 -0.7,-1.5 -0.4,-0.4 -1.1,-0.6 -1.9,-0.6 l -10,0 0,-17.7 c 0,-1 -0.2,-1.8 -0.7,-2.3 -0.5,-0.5 -1.1,-0.8 -1.9,-0.8 z m -95.7,0.2 c -0.6,0 -1.2,0.2 -1.6,0.6 -0.5,0.4 -0.7,1 -0.7,1.6 0,0.7 0.2,1.3 0.7,1.7 0.5,0.4 1,0.6 1.7,0.6 0.6,0 1.2,-0.2 1.6,-0.6 0.5,-0.4 0.7,-1 0.7,-1.7 0,-0.7 -0.2,-1.3 -0.7,-1.7 -0.5,-0.4 -1,-0.6 -1.6,-0.6 z m 114.3,0 c -0.6,0 -1.2,0.2 -1.7,0.6 l 0,0 c -0.5,0.4 -0.7,1 -0.7,1.6 0,0.7 0.2,1.3 0.7,1.7 0.5,0.4 1,0.6 1.7,0.6 0.6,0 1.2,-0.2 1.6,-0.6 0.5,-0.4 0.7,-1 0.7,-1.7 0,-0.7 -0.2,-1.3 -0.7,-1.7 -0.5,-0.4 -1,-0.6 -1.6,-0.6 z m -35.9,0.4 c -0.4,0 -0.8,0.1 -1.1,0.3 -0.3,0.2 -0.6,0.5 -0.8,0.8 -0.2,0.3 -0.3,0.7 -0.3,1.1 0,0.4 -0.1,1 -0.1,1.7 l 0,2.7 -0.4,0 c -0.7,0 -1.2,0.2 -1.6,0.5 -0.4,0.3 -0.6,0.7 -0.6,1.2 0,0.5 0.2,0.9 0.5,1.2 0.4,0.3 0.9,0.5 1.5,0.5 l 0.5,0 0,8.7 c 0,1.4 0.1,2.5 0.3,3.4 0.2,0.9 0.7,1.5 1.5,2 0.7,0.5 1.8,0.7 3.3,0.7 1.5,0 2.7,-0.2 3.5,-0.6 0.8,-0.4 1.2,-1 1.2,-1.7 0,-0.4 -0.2,-0.8 -0.5,-1.1 -0.3,-0.3 -0.7,-0.5 -1,-0.5 -0.3,0 -0.6,0 -1.1,0.1 -0.5,0.1 -0.8,0.1 -1.1,0.1 -0.5,0 -0.8,-0.1 -1,-0.3 -0.2,-0.2 -0.3,-0.5 -0.4,-0.9 -0.1,-0.4 -0.1,-0.9 -0.1,-1.6 l 0,-8.3 0.8,0 c 0.9,0 1.6,-0.1 2.1,-0.4 0.5,-0.3 0.8,-0.7 0.8,-1.3 0,-0.5 -0.2,-0.9 -0.5,-1.2 -0.4,-0.3 -0.9,-0.5 -1.5,-0.5 l -1.6,0 0,-3 c 0,-0.8 0,-1.4 -0.1,-1.8 -0.1,-0.4 -0.3,-0.8 -0.6,-1.1 -0.5,-0.4 -1,-0.7 -1.6,-0.7 z m -33,6.1 c -1.8,0 -3.3,0.2 -4.5,0.7 -1.2,0.5 -2.1,1.1 -2.7,1.9 -0.6,0.8 -0.9,1.6 -0.9,2.4 0,0.5 0.2,1 0.6,1.3 0.4,0.3 0.8,0.5 1.4,0.5 0.6,0 1,-0.1 1.2,-0.3 0.2,-0.2 0.5,-0.6 0.9,-1.3 0.4,-0.6 0.9,-1.1 1.5,-1.4 0.6,-0.3 1.4,-0.5 2.6,-0.5 1.3,0 2.2,0.3 2.6,0.8 0.4,0.5 0.6,1.4 0.7,2.6 -0.9,0.3 -1.8,0.5 -2.6,0.7 -0.8,0.2 -1.8,0.4 -2.9,0.6 -1.1,0.2 -1.9,0.4 -2.1,0.4 -1.4,0.3 -2.5,0.9 -3.3,1.8 -0.8,0.9 -1.2,2 -1.2,3.2 0,0.9 0.2,1.8 0.7,2.6 0.5,0.8 1.2,1.4 2.1,1.9 0.9,0.5 1.9,0.7 3.1,0.7 1.3,0 2.4,-0.2 3.5,-0.6 1,-0.4 2.1,-1.1 3.1,-1.9 0.5,0.8 1,1.4 1.4,1.9 0.5,0.4 0.9,0.7 1.4,0.7 0.6,0 1.1,-0.2 1.5,-0.6 0.4,-0.4 0.7,-0.8 0.7,-1.3 0,-0.3 -0.1,-0.9 -0.4,-1.8 -0.3,-0.9 -0.4,-1.8 -0.4,-2.7 0,-0.9 0,-1.7 0,-2.5 0,-0.7 0,-1.7 0,-2.7 0,-1.7 -0.2,-3.1 -0.7,-4.1 -0.5,-1 -1.3,-1.8 -2.5,-2.3 -1.2,-0.5 -2.7,-0.7 -4.7,-0.7 z m 91.7,0 c -1.4,0 -2.6,0.2 -3.8,0.7 -1.1,0.4 -2.1,1.1 -2.9,1.9 -0.8,0.8 -1.4,1.8 -1.8,3 -0.4,1.2 -0.6,2.4 -0.6,3.8 0,2.9 0.8,5.1 2.4,6.8 1.6,1.7 3.9,2.5 6.9,2.5 1.3,0 2.4,-0.2 3.4,-0.5 1,-0.3 1.8,-0.8 2.5,-1.3 0.7,-0.5 1.1,-1 1.5,-1.6 0.3,-0.6 0.5,-1 0.5,-1.5 0,-0.5 -0.2,-0.9 -0.5,-1.1 -0.3,-0.3 -0.7,-0.4 -1.2,-0.4 -0.4,0 -0.8,0.1 -1,0.3 l 0,0 0,0 c -0.6,0.5 -1,1 -1.4,1.3 -0.4,0.3 -0.7,0.6 -1.2,0.9 -0.4,0.3 -0.8,0.5 -1.3,0.6 -0.4,0.1 -0.9,0.2 -1.5,0.2 -0.8,0 -1.5,-0.2 -2.2,-0.6 -0.7,-0.4 -1.2,-1 -1.6,-1.8 -0.4,-0.8 -0.6,-1.6 -0.6,-2.6 l 8.8,0 c 1.2,0 2.1,-0.2 2.8,-0.5 0.7,-0.4 1,-1.1 1,-2.3 0,-1.2 -0.3,-2.5 -1,-3.7 -0.6,-1.2 -1.6,-2.2 -2.9,-2.9 -1.3,-0.8 -2.8,-1.1 -4.6,-1.1 z m -78.8,0 c -0.7,0 -1.2,0.2 -1.6,0.7 -0.4,0.4 -0.6,1.1 -0.6,2 l 0,13.1 c 0,0.9 0.2,1.6 0.6,2.1 0.4,0.5 1,0.7 1.7,0.7 0.7,0 1.3,-0.2 1.7,-0.7 l 0,0 c 0.4,-0.5 0.7,-1.2 0.7,-2.1 l 0,-5.7 c 0,-1.8 0.1,-3.1 0.3,-3.8 l 0,0 c 0.3,-0.8 0.8,-1.5 1.4,-2 0.7,-0.5 1.4,-0.7 2.2,-0.7 1.2,0 2,0.4 2.4,1.2 0.4,0.8 0.6,1.9 0.6,3.4 l 0,7.6 c 0,0.9 0.2,1.6 0.6,2.1 0.4,0.5 1,0.7 1.7,0.7 0.7,0 1.2,-0.2 1.7,-0.7 0.4,-0.5 0.6,-1.2 0.6,-2.1 l 0,-8.5 c 0,-1 0,-1.8 -0.1,-2.5 -0.1,-0.7 -0.3,-1.3 -0.6,-1.8 -0.5,-1 -1.2,-1.7 -2.1,-2.2 -1,-0.5 -2,-0.8 -3.2,-0.8 -1.2,0 -2.3,0.2 -3.3,0.7 -0.9,0.5 -1.8,1.2 -2.5,2.2 l 0,-0.4 c 0,-0.6 -0.1,-1 -0.3,-1.4 l 0,0 c -0.2,-0.4 -0.5,-0.7 -0.8,-0.9 -0.3,-0.2 -0.7,-0.3 -1.1,-0.3 z m -58.5,0 c -0.7,0 -1.2,0.2 -1.7,0.7 -0.4,0.5 -0.6,1.2 -0.6,2.1 l 0,13 c 0,0.9 0.2,1.6 0.6,2.1 0.4,0.5 1,0.7 1.7,0.7 0.7,0 1.2,-0.2 1.7,-0.7 0.4,-0.5 0.7,-1.2 0.7,-2.1 l 0,-13.1 c 0,-0.8 -0.2,-1.5 -0.7,-1.9 -0.4,-0.5 -1,-0.7 -1.7,-0.7 z m 27.4,0 c -0.8,0 -1.3,0.3 -1.7,0.8 -0.4,0.5 -0.6,1.3 -0.6,2.3 l 0,12.6 c 0,0.9 0.2,1.6 0.6,2.1 0.4,0.5 1,0.7 1.7,0.7 0.7,0 1.2,-0.2 1.7,-0.7 0.4,-0.5 0.7,-1.2 0.7,-2.1 l 0,-3.8 c 0,-1.4 0,-2.5 0.1,-3.5 0.1,-0.9 0.2,-1.8 0.5,-2.4 0.2,-0.7 0.6,-1.2 1,-1.5 0.4,-0.3 0.9,-0.5 1.6,-0.5 0.5,0 1,0.1 1.7,0.3 0.3,0.1 0.6,0.2 0.8,0.2 0.2,0.1 0.3,0.1 0.4,0.1 0.5,0 0.9,-0.2 1.3,-0.6 0.4,-0.4 0.6,-0.9 0.6,-1.4 0,-0.8 -0.5,-1.5 -1.4,-2 -0.9,-0.5 -1.8,-0.7 -2.8,-0.7 -1,0 -1.7,0.2 -2.3,0.7 -0.6,0.5 -1.1,1.2 -1.6,2 0,-0.9 -0.2,-1.6 -0.5,-2 -0.3,-0.5 -0.9,-0.7 -1.7,-0.7 z m 87,0 c -0.7,0 -1.2,0.2 -1.7,0.7 -0.4,0.5 -0.6,1.2 -0.6,2.1 l 0,13 c 0,0.9 0.2,1.6 0.6,2.1 0.4,0.5 1,0.7 1.7,0.7 0.7,0 1.3,-0.2 1.7,-0.7 0.4,-0.5 0.7,-1.2 0.7,-2.1 l 0,-13.1 c 0,-0.8 -0.2,-1.5 -0.7,-1.9 -0.4,-0.5 -1,-0.7 -1.7,-0.7 z m 22.7,3.3 c 1.2,0 2.1,0.4 2.8,1.1 0.7,0.7 1.1,1.9 1.2,3.4 l -8.1,0 c 0.2,-1.5 0.6,-2.6 1.3,-3.4 0.7,-0.8 1.6,-1.2 2.7,-1.2 z m -122.7,0.3 c 0.8,0 1.6,0.2 2.2,0.7 0.6,0.5 1.1,1.1 1.4,2 0.3,0.9 0.5,1.9 0.5,3.1 0,1.8 -0.4,3.3 -1.2,4.2 -0.8,1 -1.8,1.5 -2.9,1.5 -1.3,0 -2.4,-0.5 -3.2,-1.4 -0.8,-1 -1.2,-2.3 -1.2,-4.1 0,-1.2 0.2,-2.3 0.6,-3.2 0.4,-0.9 0.9,-1.6 1.6,-2 0.7,-0.5 1.4,-0.7 2.3,-0.7 z m 34.5,6 0,0.6 c 0,1.6 -0.2,2.7 -0.6,3.4 -0.3,0.6 -0.9,1.1 -1.6,1.5 -0.8,0.4 -1.6,0.6 -2.5,0.6 -0.8,0 -1.5,-0.2 -2,-0.7 -0.5,-0.5 -0.8,-1 -0.8,-1.7 0,-0.7 0.2,-1.1 0.6,-1.5 0.4,-0.4 0.9,-0.6 1.4,-0.7 0.5,-0.1 1.4,-0.3 2.6,-0.6 1.2,-0.3 2.2,-0.5 2.8,-0.8 z"
       inkscape:connector-curvature="0" />
    <path
       id="path48"
       d="M 43.3,1.9 C 20.8,1.9 2.6,20.1 2.6,42.6 c 0,2.7 0.3,5.5 0.9,8.2 0,-0.1 0.1,-0.3 0.1,-0.4 8.5,-38.2 41,-22.6 43.3,4.1 C 56.3,42.6 35.3,25.1 45.6,15 52.1,8.7 64.4,13.5 75,18.1 l 0.8,0.3 C 68.5,8.3 56.6,1.9 43.3,1.9 Z"
       inkscape:connector-curvature="0"
       style="fill:url(#logo-horizontal-linearGradient4406)" />
    <path
       id="path50"
       d="M 66.6,19.2 C 33.8,18.8 87.2,54.7 37.8,77.7 39.3,33.1 14.2,24.4 5,56.2 10.9,72.3 26.2,83 43.3,83 65.8,83 84,64.8 84,42.4 84,34.1 81.5,26.4 77.3,20.1 L 76.6,20 c -4,-0.6 -7.3,-0.9 -9.9,-0.9 z"
       inkscape:connector-curvature="0"
       style="fill:url(#logo-horizontal-linearGradient4398)" />
    <path
       id="path52"
       d="m 120,32.6 c -1.1,0 -2.5,0.1 -4.1,0.2 -1.6,0.1 -3.3,0.4 -5.1,0.7 -1.8,0.3 -3.6,0.8 -5.3,1.4 -1.8,0.6 -3.4,1.3 -4.9,2.1 -1.5,0.9 -2.7,1.9 -3.6,3.1 -1,1.2 -1.5,2.7 -1.6,4.3 -0.1,1.2 0.3,2.2 1,3.1 0.7,0.8 1.8,1.6 3.3,2.4 l 0,0 c 1.5,0.7 3.4,1.5 5.8,2.2 2.4,0.7 5.2,1.6 8.5,2.5 1.1,0.4 2.5,0.8 4,1.2 1.5,0.5 2.9,1 4.2,1.7 l 0,0 c 1.3,0.6 2.4,1.3 3.3,2.1 0.8,0.7 1.2,1.4 1.2,2.2 0,0.6 -0.2,1 -0.6,1.3 -0.5,0.3 -1.1,0.6 -1.8,0.8 -0.7,0.2 -1.5,0.3 -2.2,0.3 -0.8,0 -1.4,0 -1.9,0 -2.6,0 -5.3,-0.3 -7.9,-0.9 -2.6,-0.6 -5.1,-1.5 -7.3,-2.7 l 0,0 0,0 c -0.3,-0.1 -0.7,-0.4 -1.2,-0.6 l 0,0 c -0.4,-0.3 -0.9,-0.6 -1.3,-1 l 0,0 c -0.4,-0.4 -0.8,-0.7 -1,-1.1 l 0,0 0,0 c -0.3,-0.4 -0.4,-0.7 -0.4,-1.1 0,-0.2 0.1,-0.4 0.1,-0.6 l 0,0 c 0.1,-0.2 0.3,-0.4 0.5,-0.6 0.3,-0.2 0.6,-0.4 1,-0.6 0.4,-0.2 0.9,-0.5 1.5,-0.8 l 0,0 0,0 c 0.2,-0.1 0.3,-0.2 0.5,-0.3 0.1,-0.1 0.3,-0.3 0.3,-0.6 0,-0.3 -0.2,-0.6 -0.5,-0.8 -0.2,-0.1 -0.5,-0.2 -0.8,-0.3 l 0,0 0,0 c -0.2,0 -0.4,-0.1 -0.6,-0.1 -0.8,0 -1.6,0.1 -2.2,0.4 -0.6,0.3 -1.2,0.6 -1.6,1 -0.4,0.4 -0.8,0.9 -1,1.5 -0.2,0.5 -0.4,1.1 -0.4,1.6 0,1 0.3,2 0.8,2.9 0.5,0.8 1.2,1.6 2,2.3 0.8,0.7 1.7,1.3 2.6,1.8 0.9,0.5 1.8,0.9 2.7,1.3 2.3,0.9 4.7,1.7 7.2,2.2 2.5,0.5 5,0.8 7.7,0.8 1.2,0 2.3,-0.1 3.5,-0.3 1.1,-0.2 2.1,-0.6 3,-1.1 0.9,-0.5 1.6,-1.1 2.2,-1.9 0.6,-0.8 0.9,-1.8 0.9,-2.9 0,-1.2 -0.3,-2.3 -1,-3.3 -0.6,-0.9 -1.4,-1.8 -2.4,-2.5 -1,-0.7 -2,-1.4 -3.1,-2 l 0,0 c -1.1,-0.6 -2.1,-1 -3,-1.4 l 0,0 0,0 c -1,-0.4 -2.2,-0.8 -3.6,-1.2 -1.4,-0.4 -3,-0.9 -4.6,-1.3 -1.6,-0.4 -3.2,-0.9 -4.8,-1.3 -1.6,-0.5 -3,-0.9 -4.2,-1.4 -1.2,-0.5 -2.2,-1 -2.9,-1.5 -0.7,-0.5 -0.9,-0.8 -0.8,-1.1 l 0,0 0,0 c 0.1,-0.8 0.4,-1.5 1.2,-2.2 0.8,-0.7 1.8,-1.3 3,-1.9 1.3,-0.5 2.6,-1 4.2,-1.4 1.6,-0.4 3.1,-0.7 4.6,-1 1.5,-0.2 2.9,-0.4 4.2,-0.5 1.3,-0.1 2.4,-0.2 3.1,-0.2 0.8,0 1.8,0.1 3,0.2 1.2,0.1 2.3,0.3 3.4,0.5 1.1,0.2 2,0.5 2.7,0.9 0.3,0.2 0.6,0.4 0.7,0.5 0.1,0.2 0.2,0.3 0.2,0.4 0,0.1 0,0.1 -0.3,0.2 l 0,0 c -0.3,0.2 -0.7,0.3 -1.1,0.5 -0.5,0.2 -0.9,0.3 -1.3,0.6 l 0,0 c -0.5,0.3 -0.8,0.7 -0.8,1.2 0,0.3 0.2,0.7 0.5,0.8 l 0,0 0,0 c 0.2,0.1 0.5,0.3 0.7,0.3 0.3,0.1 0.5,0.2 0.7,0.2 l 0,0 c 0.2,0.1 0.4,0.1 0.5,0.1 1.3,0 2.5,-0.4 3.6,-1.1 1,-0.8 1.6,-1.9 1.6,-3.3 0,-1 -0.3,-1.9 -0.9,-2.7 -0.6,-0.7 -1.3,-1.3 -2.2,-1.9 l 0,0 c -0.9,-0.5 -1.9,-0.9 -2.9,-1.2 -1.1,-0.3 -2.1,-0.6 -3.2,-0.7 l 0,0 c -1,-0.2 -2,-0.3 -3,-0.4 -0.9,-0.1 -1.7,-0.1 -2.3,-0.1 z m 85.9,1.7 c -0.3,0 -0.5,0.1 -0.7,0.3 -0.2,0.2 -0.3,0.4 -0.4,0.6 -0.2,0.5 -0.3,1 -0.4,1.7 l 0,0 c -0.1,0.7 -0.2,1.5 -0.2,2.4 l 0,0 c 0,0.9 -0.1,1.8 -0.1,2.8 -0.1,1.6 -0.1,3.5 -0.2,5.8 0,2.3 -0.1,4.7 -0.1,7.1 0,2.5 0,4.9 0.1,7.2 0.1,2.1 0.3,3.9 0.5,5.5 -1.4,0.1 -2.7,0.3 -4.1,0.3 -1.5,0.1 -3,0.1 -4.6,0.1 l -1.6,0 c -0.6,0 -1.2,0.1 -1.7,0.2 l 0,0 c -0.5,0.1 -1,0.3 -1.4,0.5 -0.4,0.3 -0.7,0.8 -0.7,1.4 0,0.4 0.1,0.7 0.4,1 0.2,0.3 0.6,0.4 0.9,0.6 0.7,0.2 1.5,0.4 2.3,0.4 l 0.4,0 c 0.2,0 0.6,0 1.3,0 0.6,0 1.6,0 2.9,0 1.3,0 3.1,0 5.4,0 2.3,0 5.2,0 8.7,0 l 12.9,0 c 0.3,0 0.8,0 1.2,0 l 0,0 0,0 c 0.5,0 1,0 1.5,-0.1 l 0,0 c 0.5,-0.1 0.9,-0.2 1.3,-0.5 l 0,0 c 0.4,-0.3 0.7,-0.8 0.7,-1.3 0,-0.6 -0.2,-1.1 -0.6,-1.5 -0.3,-0.4 -0.8,-0.7 -1.2,-1 l 0,0 c -0.5,-0.3 -1,-0.5 -1.5,-0.6 -0.5,-0.1 -0.9,-0.3 -1.4,-0.3 l 0,0 0,0 c -1.7,-0.2 -3.4,-0.2 -5,-0.2 l 0,0 c -1.6,0 -3.2,0.1 -4.8,0.2 -1.6,0.1 -3.1,0.2 -4.6,0.4 -1.3,0.1 -2.5,0.3 -3.7,0.4 0.1,-0.3 0.2,-0.6 0.3,-1 0.1,-0.6 0.2,-1.3 0.3,-1.9 0.1,-0.6 0.2,-1.3 0.2,-1.9 0.1,-0.6 0.1,-1.2 0.1,-1.7 l 0,0 0,0 c 0,-0.8 0,-1.7 0.1,-2.9 0,-1.2 0.1,-2.7 0.2,-4.4 0.1,-1.7 0.2,-3.8 0.2,-6.1 0.1,-2.3 0.2,-5 0.3,-8.1 l 0,0 c 0,-0.5 0,-1 -0.1,-1.6 -0.1,-0.6 -0.3,-1.1 -0.6,-1.7 -0.3,-0.5 -0.6,-1 -1,-1.3 l 0,0 0,0 c -0.5,-0.4 -1,-0.6 -1.6,-0.6 z m -48.1,10.8 c -0.2,0 -0.5,0 -0.7,0.1 -1,0.2 -1.8,0.5 -2.5,1.1 -0.7,0.6 -1,1.4 -0.8,2.3 0.1,0.8 0.7,1.5 1.6,1.8 0.8,0.3 1.7,0.4 2.6,0.3 l 0,0 0,0 c 0.5,-0.1 0.9,-0.2 1.3,-0.4 0.4,-0.2 0.8,-0.4 1.1,-0.7 0.3,-0.3 0.6,-0.6 0.8,-1 l 0,0 c 0.2,-0.4 0.2,-0.8 0.2,-1.3 -0.1,-0.8 -0.7,-1.5 -1.5,-1.8 -0.6,-0.3 -1.3,-0.4 -2,-0.3 z m 62.9,0 c -0.2,0 -0.5,0 -0.7,0.1 -1,0.2 -1.8,0.5 -2.5,1.1 -0.7,0.6 -1,1.4 -0.8,2.3 0.1,0.8 0.7,1.5 1.6,1.8 0.8,0.3 1.7,0.4 2.6,0.3 l 0,0 0,0 c 0.5,-0.1 0.9,-0.2 1.3,-0.4 0.4,-0.2 0.8,-0.4 1.1,-0.7 0.3,-0.3 0.6,-0.6 0.8,-1 0.2,-0.4 0.2,-0.8 0.2,-1.3 -0.1,-0.8 -0.7,-1.5 -1.5,-1.8 l 0,0 c -0.6,-0.3 -1.3,-0.4 -2,-0.3 z m 18.2,0 c -0.2,0 -0.5,0 -0.7,0.1 -1,0.2 -1.8,0.5 -2.5,1.1 -0.7,0.6 -1,1.4 -0.8,2.3 0.1,0.8 0.7,1.5 1.6,1.8 0.8,0.3 1.7,0.4 2.6,0.3 l 0,0 0,0 c 0.5,-0.1 0.9,-0.2 1.3,-0.4 0.4,-0.2 0.8,-0.4 1.1,-0.7 0.3,-0.3 0.6,-0.6 0.8,-1 l 0,0 c 0.2,-0.4 0.2,-0.8 0.2,-1.3 -0.1,-0.8 -0.7,-1.5 -1.5,-1.8 -0.6,-0.3 -1.3,-0.4 -2,-0.3 z m -102.1,3.4 c -1,0 -1.9,0.5 -2.6,1.4 -0.7,0.9 -1.3,1.9 -1.7,3.2 -0.4,1.3 -0.7,2.6 -0.9,4 -0.1,1.4 -0.1,2.8 0.1,4.1 0.2,1.3 0.7,2.4 1.4,3.2 0.7,0.9 1.8,1.4 3.1,1.4 1,0 2,-0.2 2.8,-0.7 0.8,-0.4 1.6,-1 2.2,-1.7 0.6,-0.7 1.2,-1.4 1.6,-2.2 0,0 0,0 0,0 0,0.3 0,0.7 0,0.9 0,0.6 0.2,1.2 0.7,1.5 0.4,0.3 0.9,0.4 1.4,0.4 0.5,0 1,-0.1 1.4,-0.4 0.5,-0.3 0.8,-0.7 0.9,-1.3 l 0,0 0,0 c 0,-0.3 0.1,-0.8 0.2,-1.3 0.1,-0.5 0.3,-1.1 0.4,-1.6 l 0,0 c 0,-0.1 0.1,-0.2 0.1,-0.4 0,0.4 0,0.8 0.1,1.2 0.1,0.7 0.4,1.3 0.9,1.9 0.5,0.6 1.4,0.9 2.4,0.9 0.7,0 1.4,-0.4 2,-1 0.5,-0.5 0.9,-1 1.3,-1.6 0.1,0.8 0.3,1.5 0.6,2.1 0.4,0.8 1.2,1.4 2.1,1.7 l 0,0 0,0 c 0.7,0.2 1.4,0.1 2,-0.2 0.5,-0.3 1,-0.8 1.5,-1.3 0.4,-0.5 0.8,-1.1 1.1,-1.8 0.3,0.4 0.6,0.8 1,1.2 0.8,0.7 1.9,1 3.2,1 1.1,0 2.2,-0.3 3,-1 l 0,0 c 0.8,-0.6 1.4,-1.4 1.9,-2.3 0.4,-0.9 0.7,-1.9 0.7,-3 0.1,-1.1 -0.1,-2.1 -0.4,-3 -0.3,-1 -0.9,-1.8 -1.7,-2.5 -0.8,-0.7 -1.8,-1.1 -3,-1.1 l 0,0 c -1.1,-0.1 -2,0.2 -2.8,0.9 l 0,0 c -0.8,0.6 -1.4,1.4 -1.8,2.4 -0.2,0.3 -0.3,0.7 -0.4,1.1 -0.3,0.2 -0.4,0.5 -0.5,0.8 l 0,0 0,0 c -0.1,0.3 -0.2,0.8 -0.4,1.5 -0.2,0.7 -0.5,1.3 -0.7,2 -0.2,0.7 -0.5,1.2 -0.8,1.7 -0.1,0.2 -0.2,0.3 -0.2,0.3 0,-0.1 -0.1,-0.1 -0.1,-0.3 -0.1,-0.5 -0.1,-1.2 -0.1,-2 l 0,0 c 0,-0.8 0.1,-1.6 0.2,-2.4 0.1,-0.9 0.2,-1.6 0.4,-2.1 l 0,0 0,0 c 0.1,-0.6 -0.1,-1.3 -0.5,-1.7 l 0,0 c -0.4,-0.4 -1,-0.7 -1.5,-0.8 -0.1,0 -0.3,0 -0.4,0 -0.4,0 -0.9,0.2 -1.2,0.4 -0.6,0.4 -0.8,1.1 -0.8,2 0,0.3 0,0.5 0,0.8 -0.1,0.2 -0.3,0.4 -0.3,0.6 l 0,0 c -0.1,0.4 -0.3,0.8 -0.6,1.4 -0.3,0.5 -0.5,1.1 -0.9,1.5 -0.3,0.5 -0.6,0.9 -0.9,1.2 -0.2,0.2 -0.1,0.2 -0.2,0.2 0,0 0,0 0,-0.1 l 0,0 C 152,59.2 152,58.6 152,58 c 0,-0.6 0,-1.2 0.1,-1.8 l 0,0 c 0.1,-0.6 0.2,-1 0.2,-1.3 l 0,0 c 0.1,-0.3 0.2,-0.5 0.1,-0.8 0,-0.3 -0.2,-0.5 -0.4,-0.7 l 0,0 0,0 c -0.4,-0.3 -0.8,-0.5 -1.3,-0.5 l 0,0 c -0.5,0 -1,0.1 -1.5,0.3 -0.5,0.2 -0.9,0.5 -1.3,0.9 l 0,0 0,0 c -0.2,0.3 -0.5,0.8 -0.7,1.2 0.1,-0.4 0.1,-0.8 0.2,-1.2 0.1,-0.6 0.2,-1.1 0.3,-1.5 l 0,0 0,0 c 0.1,-0.6 -0.2,-1.2 -0.7,-1.5 l 0,0 c -0.4,-0.3 -1,-0.4 -1.5,-0.4 l 0,0 c -0.6,0 -1.1,0.3 -1.6,0.6 -0.6,0.4 -0.9,1 -1,1.8 -0.1,0.5 -0.2,1.1 -0.2,1.7 -0.1,0.2 -0.2,0.3 -0.3,0.5 l 0,0 0,0 c 0,0.2 -0.2,0.5 -0.4,1 -0.2,0.5 -0.5,1 -0.8,1.6 l 0,0 c -0.3,0.6 -0.7,1.2 -1.1,1.8 -0.4,0.6 -0.8,1.2 -1.2,1.6 -0.4,0.4 -0.8,0.8 -1.3,1 l 0,0 c -0.4,0.2 -0.7,0.3 -1,0.2 l 0,0 c -0.2,-0.1 -0.3,-0.2 -0.4,-0.4 l 0,0 c -0.1,-0.3 -0.3,-0.7 -0.3,-1.1 -0.1,-0.5 -0.1,-1 -0.1,-1.6 0,-0.5 0.1,-1 0.1,-1.5 0.3,0 0.5,-0.1 0.8,-0.1 0.5,-0.1 1,-0.2 1.5,-0.3 0.5,-0.2 0.9,-0.4 1.3,-0.6 l 0,0 c 0.4,-0.3 0.8,-0.6 1.1,-1 0.4,-0.5 0.6,-1.2 0.5,-2.1 -0.1,-0.8 -0.3,-1.6 -0.6,-2.3 l 0,0 c -0.3,-0.8 -0.9,-1.4 -1.5,-2 -0.5,-0.6 -1.3,-1 -2.2,-1 z m 123.4,1 c -1.1,0 -2.1,0.4 -2.9,1.1 -0.8,0.7 -1.4,1.6 -1.9,2.7 -0.2,0.4 -0.3,0.8 -0.5,1.3 -0.3,0.2 -0.4,0.5 -0.5,0.8 -0.1,0.4 -0.3,0.8 -0.6,1.4 -0.3,0.5 -0.6,1.1 -0.9,1.5 -0.3,0.5 -0.6,0.9 -0.9,1.2 -0.2,0.2 -0.1,0.2 -0.2,0.2 0,0 0,0 0,-0.1 l 0,0 0,0 c -0.1,-0.4 -0.1,-1 -0.1,-1.6 0,-0.6 0,-1.2 0.1,-1.8 0.1,-0.6 0.2,-1 0.2,-1.2 l 0,0 c 0.1,-0.3 0.2,-0.5 0.1,-0.8 0,-0.3 -0.2,-0.5 -0.4,-0.7 l 0,0 0,0 c -0.4,-0.3 -0.8,-0.5 -1.3,-0.5 -0.5,0 -1,0.1 -1.5,0.3 -0.5,0.2 -0.9,0.5 -1.3,0.9 l 0,0 0,0 c -0.2,0.3 -0.5,0.8 -0.7,1.2 0.1,-0.4 0.1,-0.8 0.2,-1.2 l 0,0 c 0.1,-0.6 0.2,-1.1 0.3,-1.5 l 0,0 0,0 c 0.1,-0.6 -0.2,-1.2 -0.7,-1.5 l 0,0 c -0.4,-0.3 -1,-0.4 -1.5,-0.4 -0.6,0 -1.1,0.3 -1.6,0.6 -0.6,0.4 -0.9,1 -1,1.8 -0.1,0.5 -0.2,1.1 -0.2,1.7 -0.1,0.2 -0.2,0.4 -0.3,0.6 l 0,0 0,0 c -0.1,0.3 -0.2,0.8 -0.4,1.5 -0.2,0.7 -0.5,1.3 -0.7,2 -0.2,0.7 -0.5,1.2 -0.8,1.7 -0.1,0.2 -0.2,0.3 -0.2,0.3 0,-0.1 -0.1,-0.1 -0.1,-0.3 -0.1,-0.5 -0.1,-1.2 -0.1,-2 l 0,0 c 0,-0.8 0.1,-1.6 0.2,-2.4 0.1,-0.9 0.2,-1.6 0.4,-2.1 l 0,0 0,0 c 0.1,-0.6 -0.1,-1.3 -0.5,-1.7 -0.4,-0.4 -1,-0.7 -1.5,-0.8 l 0,0 c -0.1,0 -0.3,0 -0.4,0 -0.4,0 -0.9,0.2 -1.2,0.4 -0.6,0.4 -0.8,1.1 -0.8,2 0,1 0,2 -0.1,3.1 -0.1,1.1 -0.1,2.1 0,3 0.1,1 0.3,1.8 0.7,2.6 0.4,0.8 1.2,1.4 2.1,1.7 l 0,0 0,0 c 0.7,0.2 1.4,0.1 2,-0.2 0.5,-0.3 1,-0.8 1.5,-1.3 0.2,-0.2 0.4,-0.5 0.5,-0.8 0,0.1 0,0.1 0,0.2 0,0.6 0.2,1.2 0.7,1.5 0.4,0.3 0.9,0.4 1.4,0.4 0.5,0 1,-0.1 1.4,-0.4 0.5,-0.3 0.8,-0.7 0.9,-1.3 l 0,0 0,0 c 0,-0.3 0.1,-0.8 0.2,-1.3 0.1,-0.5 0.3,-1.1 0.4,-1.6 l 0,0 c 0,-0.1 0.1,-0.2 0.1,-0.4 0,0.4 0,0.8 0.1,1.2 0.1,0.7 0.4,1.3 0.9,1.9 0.5,0.6 1.4,0.9 2.4,0.9 0.7,0 1.4,-0.4 2,-1 0.5,-0.5 1,-1.1 1.4,-1.7 0.3,1 0.7,1.8 1.4,2.5 0.6,0.6 1.5,0.9 2.4,1 -0.7,0.3 -1.5,0.6 -2.1,1 -0.9,0.6 -1.5,1.3 -1.9,2.2 -0.4,0.9 -0.4,2 0.2,3.1 l 0,0 0,0 c 0.4,0.7 1,1.3 2,1.7 0.9,0.4 1.9,0.5 3,0.3 1.1,-0.2 2.1,-0.7 3.1,-1.4 1,-0.8 1.8,-2.1 2.3,-3.8 l 0,0 0,0 c 0.2,-0.6 0.3,-1.1 0.4,-1.6 l 0,0 c 0.1,-0.5 0.2,-1 0.2,-1.4 0.9,-0.9 1.8,-1.9 2.6,-3.2 0.9,-1.3 1.6,-3 2.2,-4.9 l 0,0 c 0.1,-0.4 0.1,-0.8 -0.1,-1.2 l 0,0 c -0.2,-0.3 -0.4,-0.5 -0.8,-0.6 -0.3,-0.1 -0.7,-0.1 -1,0.1 l 0,0 c -0.4,0.2 -0.6,0.5 -0.7,0.9 -0.6,1.6 -1.3,2.9 -2,4.1 0,-0.5 0,-1 0,-1.5 0,-1.2 0.1,-2.5 0.3,-4.1 l 0,0 0,0 c 0,-0.4 0,-0.9 -0.3,-1.2 -0.2,-0.3 -0.5,-0.6 -0.9,-0.7 l 0,0 c -0.3,-0.1 -0.7,-0.2 -1,-0.2 l 0,0 c -0.2,0 -0.5,0 -0.7,0.1 -0.3,-0.6 -0.7,-1.1 -1.3,-1.5 -0.6,-0.4 -1.3,-0.7 -2,-0.7 z m -32.4,1.1 c -0.3,0 -0.5,0 -0.8,0 l 0,0 c -0.6,0.1 -1.1,0.3 -1.6,0.6 l 0,0 c -0.5,0.4 -0.9,1 -0.9,1.6 -0.1,0.7 -0.1,1.3 -0.2,2 -0.1,0.1 -0.2,0.3 -0.2,0.5 l 0,0 0,0 c -0.1,0.3 -0.2,0.8 -0.4,1.5 -0.2,0.7 -0.5,1.3 -0.7,2 -0.3,0.7 -0.5,1.2 -0.8,1.7 -0.1,0.2 -0.2,0.3 -0.2,0.3 0,-0.1 -0.1,-0.1 -0.1,-0.3 -0.1,-0.5 -0.1,-1.2 -0.1,-2 l 0,0 c 0,-0.8 0.1,-1.6 0.2,-2.4 0.1,-0.9 0.2,-1.6 0.4,-2.1 l 0,0 0,0 c 0.1,-0.6 -0.1,-1.3 -0.5,-1.7 l 0,0 c -0.4,-0.4 -1,-0.7 -1.5,-0.8 -0.1,0 -0.3,0 -0.4,0 -0.4,0 -0.9,0.2 -1.2,0.4 -0.6,0.4 -0.8,1.1 -0.8,2 0,1 0,2 -0.1,3.1 -0.1,1.1 -0.1,2.1 0,3 0.1,1 0.3,1.8 0.7,2.6 0.4,0.8 1.2,1.4 2.1,1.7 l 0,0 0,0 c 0.7,0.2 1.4,0.1 2,-0.2 0.5,-0.3 1,-0.8 1.5,-1.3 0.4,-0.6 0.8,-1.2 1.1,-1.9 0,0 0,-0.1 0,-0.1 0.3,0.9 0.8,1.6 1.4,2.2 0.7,0.7 1.6,1.1 2.6,1 0.8,0 1.5,-0.3 2.2,-0.9 0.6,-0.5 1.1,-1.2 1.5,-2 l 0,0 c 0.4,-0.8 0.7,-1.6 1,-2.5 l 0,0 c 0.3,-0.9 0.5,-1.7 0.6,-2.5 0.1,-0.8 0.3,-1.5 0.3,-2.1 0.1,-0.6 0.1,-1 0.1,-1.2 l 0,0 0,0 c 0,-0.4 -0.1,-0.9 -0.5,-1.2 l 0,0 c -0.3,-0.2 -0.6,-0.3 -1,-0.3 -0.4,0 -0.7,0.1 -1,0.3 -0.4,0.2 -0.6,0.7 -0.6,1.1 0,0.3 -0.1,0.9 -0.2,1.8 -0.1,0.9 -0.3,1.8 -0.5,2.7 -0.2,0.9 -0.4,1.7 -0.7,2.4 l 0,0 c -0.1,0.3 -0.3,0.6 -0.3,0.7 0,0 0,0 0,0 0,0 0,0 0,0 -0.1,-0.1 -0.2,-0.3 -0.3,-0.6 l 0,0 c -0.2,-0.6 -0.4,-1.3 -0.6,-2.2 -0.1,-0.9 -0.2,-1.8 -0.2,-2.9 0,-1 0.1,-1.9 0.3,-2.8 l 0,0 0,0 c 0.1,-0.3 0,-0.6 -0.2,-0.8 -0.2,-0.2 -0.4,-0.3 -0.7,-0.4 -0.2,-0.1 -0.5,-0.1 -0.7,-0.1 z m -53.2,0.5 c -0.5,0 -1,0.2 -1.3,0.5 l 0,0 c -0.4,0.3 -0.6,0.6 -0.8,1 -0.2,0.4 -0.3,0.9 -0.2,1.3 0,0.4 0.2,0.7 0.5,1 l -0.2,0.6 c -0.2,0.4 -0.2,0.8 0.1,1.2 0.2,0.3 0.5,0.5 0.8,0.5 0.3,0.1 0.7,0 1,-0.1 0.3,-0.2 0.6,-0.5 0.7,-0.9 -0.2,0.6 -0.3,1.2 -0.4,1.9 -0.1,1.1 -0.2,2.1 -0.1,3 0.1,1 0.3,1.8 0.7,2.5 0.4,0.8 1.2,1.3 2.1,1.3 0.8,0 1.5,-0.2 2.1,-0.6 0.6,-0.4 1.1,-0.9 1.6,-1.6 0.5,-0.6 0.9,-1.3 1.2,-2.1 0.3,-0.7 0.6,-1.4 0.8,-2.1 0.2,-0.7 0.4,-1.3 0.5,-1.8 l 0,0 c 0.1,-0.5 0.2,-0.9 0.2,-1.1 l 0,0 0,0 c 0,-0.4 0,-0.8 -0.3,-1.1 l 0,0 0,0 C 183.4,54.2 183,54.1 182.7,54 l 0,0 0,0 c -0.3,0 -0.7,0.1 -0.9,0.2 -0.3,0.2 -0.6,0.6 -0.6,1 l 0,0 0,0 c -0.1,0.3 -0.2,0.9 -0.5,1.6 -0.3,0.7 -0.5,1.5 -0.8,2.2 l 0,0 c -0.3,0.7 -0.6,1.4 -0.9,1.9 -0.1,0.2 -0.2,0.3 -0.3,0.4 0,-0.1 0,-0.1 -0.1,-0.2 l 0,0 c -0.1,-0.5 -0.1,-1 0,-1.7 l 0,0 c 0.1,-0.7 0.2,-1.4 0.3,-2.2 l 0,0 c 0.1,-0.8 0.3,-1.5 0.4,-2 l 0,0 c 0.1,-0.3 0.1,-0.6 0.1,-0.9 0,-0.3 -0.2,-0.6 -0.5,-0.7 l 0,0 c -0.4,-0.2 -0.8,-0.3 -1.2,-0.3 -0.4,0 -0.8,0.1 -1.3,0.1 l 0,0 c -0.2,0 -0.2,0 -0.3,0 0.1,-0.4 0.3,-0.9 0.2,-1.3 0,-0.4 -0.2,-0.7 -0.5,-0.9 -0.3,-0.2 -0.7,-0.3 -1.1,-0.3 z m -37.2,1 c 0,0.1 0.1,0.3 0.1,0.5 0,0.4 0,0.7 0,1 0,0.3 -0.1,0.5 -0.2,0.6 l 0,0 0,0 c -0.1,0.1 -0.2,0.2 -0.5,0.3 -0.1,0 -0.2,0 -0.3,0 0.2,-0.7 0.3,-1.4 0.5,-1.9 0.1,-0.2 0.2,-0.4 0.2,-0.5 z m 123.2,0.4 c 0,0 0.1,0 0.2,0 0.2,0 0.4,0.2 0.6,0.6 0.2,0.5 0.4,1 0.5,1.7 0.1,0.7 0.1,1.5 0,2.3 -0.1,0.8 -0.3,1.6 -0.5,2.3 -0.1,0.2 -0.2,0.4 -0.3,0.7 -0.1,0.2 -0.2,0.4 -0.3,0.6 -0.1,0.2 -0.2,0.3 -0.3,0.4 -0.1,0.1 -0.2,0.1 -0.3,0.1 -0.4,0 -0.5,-0.1 -0.7,-0.5 -0.2,-0.4 -0.4,-1 -0.5,-1.7 l 0,0 c -0.1,-0.7 -0.1,-1.4 0,-2.3 l 0,0 c 0.1,-0.8 0.3,-1.6 0.5,-2.3 0.2,-0.7 0.5,-1.2 0.8,-1.6 0.2,-0.3 0.3,-0.4 0.5,-0.4 z M 166.7,53 c 0.2,0 0.3,0.1 0.5,0.4 0.2,0.4 0.4,0.8 0.5,1.4 0.1,0.6 0.2,1.2 0.2,1.9 0,0.7 0,1.3 -0.1,1.9 -0.1,0.5 -0.2,1 -0.4,1.3 -0.2,0.3 -0.2,0.3 -0.4,0.3 l 0,0 0,0 c -0.3,0 -0.4,-0.1 -0.6,-0.4 l 0,0 C 166.2,59.4 166,59 165.9,58.4 l 0,0 c -0.1,-0.6 -0.2,-1.2 -0.2,-1.8 0,-0.7 0.1,-1.3 0.2,-1.8 0.1,-0.5 0.3,-1 0.4,-1.3 0.2,-0.3 0.3,-0.3 0.4,-0.3 z m 94.1,13.2 c -0.3,1 -0.6,1.8 -1,2.2 -0.4,0.6 -0.8,0.8 -1.1,0.9 -0.3,0.1 -0.4,0.1 -0.5,-0.1 l 0,0 c -0.1,-0.1 -0.2,-0.3 -0.1,-0.7 l 0,0 0,0 c 0.1,-0.8 0.5,-1.3 1.2,-1.8 0.5,-0.3 1,-0.4 1.6,-0.6 z"
       inkscape:connector-curvature="0"
       style="fill:#1a438e" />
  </g>
</svg>
