<svg xmlns="http://www.w3.org/2000/svg" width="272" height="84" viewBox="0 0 271.6 84.3"><metadata/><defs><linearGradient xlink:href="#logo-horizontal-SVGID_3_" id="logo-horizontal-linearGradient4406" x1="194.7" y1="103.7" x2="268.1" y2="103.7" gradientUnits="userSpaceOnUse" gradientTransform="matrix(0.99747479,0,0,0.99747479,-191.60294,-75.3292)"/><linearGradient y2="25.5" x2="120" y1="25.5" x1="34.9" gradientUnits="userSpaceOnUse" id="logo-horizontal-SVGID_3_"><stop offset="0" stop-color="#1A438E"/><stop offset="0.1099" stop-color="#304D94"/><stop offset="0.3362" stop-color="#5667A5"/><stop offset="0.6598" stop-color="#959BC7"/><stop offset="1" stop-color="#FFF"/></linearGradient><linearGradient xlink:href="#logo-horizontal-SVGID_4_" id="logo-horizontal-linearGradient4398" x1="197.1" y1="126.8" x2="276.2" y2="126.8" gradientUnits="userSpaceOnUse" gradientTransform="matrix(0.99747479,0,0,0.99747479,-191.60294,-75.3292)"/><linearGradient y2="52.6" x2="133.2" y1="52.6" x1="48.3" gradientUnits="userSpaceOnUse" id="logo-horizontal-SVGID_4_"><stop offset="0" stop-color="#F9C300"/><stop offset="0.0687" stop-color="#F8BE09"/><stop offset="0.1657" stop-color="#F5AF1D"/><stop offset="0.2796" stop-color="#F09A2A"/><stop offset="0.4053" stop-color="#EA7E33"/><stop offset="0.4848" stop-color="#E76A36"/><stop offset="0.6235" stop-color="#E26835"/><stop offset="0.7069" stop-color="#D46332"/><stop offset="0.7756" stop-color="#BF5B2E"/><stop offset="0.8364" stop-color="#A45027"/><stop offset="0.8914" stop-color="#85431E"/><stop offset="0.9333" stop-color="#6C3715"/></linearGradient></defs><path class="hide-on-scroll" d="m128.4 11.6c-0.7 0-1.2 0.2-1.6 0.7-0.4 0.5-0.6 1.2-0.6 2.1l0 19.8c0 0.9 0.2 1.5 0.6 2 0.4 0.5 0.9 0.7 1.6 0.7 0.6 0 1.2-0.2 1.6-0.7 0.4-0.5 0.6-1.1 0.6-2l0-0.3c0.4 0.5 0.8 0.9 1.1 1.2 0.3 0.3 0.7 0.6 1.1 0.8 0.4 0.3 1 0.5 1.6 0.7 0.6 0.2 1.3 0.3 2 0.3 1.2 0 2.2-0.2 3.2-0.7 1-0.5 1.8-1.1 2.4-2 0.7-0.8 1.2-1.9 1.5-3 0.4-1.2 0.5-2.4 0.5-3.8 0-1.9-0.3-3.5-0.9-4.9-0.6-1.4-1.5-2.4-2.7-3.1-1.1-0.7-2.5-1.1-4-1.1-1.3 0-2.4 0.2-3.3 0.7-0.9 0.5-1.7 1.1-2.5 2l0-6.8c0-0.8-0.2-1.5-0.6-2-0.4-0.5-1-0.7-1.7-0.7zm-30.1 0c-0.7 0-1.3 0.2-1.8 0.7-0.5 0.5-0.7 1-0.7 1.6 0 0.2 0 0.5 0.1 0.8 0.1 0.3 0.2 0.6 0.3 0.9 0.1 0.3 0.2 0.6 0.3 0.8l5.8 15.8c0.2 0.6 0.4 1.2 0.6 1.7 0.2 0.5 0.5 1 0.7 1.5 0.3 0.4 0.7 0.8 1.1 1.1 0.5 0.3 1 0.4 1.7 0.4 0.7 0 1.2-0.1 1.7-0.4 0.5-0.3 0.8-0.6 1.1-1 0.3-0.4 0.5-0.9 0.7-1.5 0.2-0.5 0.4-1.1 0.6-1.7l0 0 5.9-15.9c0.1-0.3 0.2-0.6 0.3-0.8 0.1-0.3 0.2-0.6 0.3-0.8 0.1-0.3 0.1-0.6 0.1-0.8 0-0.4-0.1-0.7-0.3-1.1-0.2-0.4-0.5-0.6-0.9-0.9-0.4-0.2-0.8-0.3-1.2-0.3-0.6 0-1.1 0.1-1.4 0.4-0.3 0.3-0.6 0.6-0.7 0.9-0.1 0.3-0.4 0.9-0.7 1.8l-5.2 16.2-5.4-16.2c-0.4-1.1-0.8-1.9-1.1-2.4-0.4-0.6-1-0.8-1.9-0.8zm149 0c-1.5 0-2.7 0.2-3.6 0.6-0.9 0.4-1.5 1-1.9 1.9-0.4 0.9-0.5 2-0.5 3.4l0 1.3-1 0c-0.8 0-1.3 0.1-1.7 0.4-0.4 0.3-0.6 0.7-0.6 1.3 0 0.5 0.2 0.9 0.6 1.2 0.4 0.3 0.9 0.5 1.6 0.5l1.2 0 0 12c0 0.9 0.2 1.6 0.7 2.1 0.4 0.5 1 0.7 1.7 0.7 0.7 0 1.3-0.2 1.7-0.7 0.4-0.5 0.7-1.2 0.7-2.1l0-12 1.1 0c0.8 0 1.5-0.1 1.9-0.3l0 0c0.2-0.1 0.4-0.3 0.6-0.5 0.1-0.2 0.2-0.6 0.2-0.9 0-0.5-0.2-1-0.7-1.2-0.4-0.3-1.1-0.4-2-0.4l-1.1 0 0-1c0-0.9 0.1-1.6 0.3-2 0.2-0.5 0.7-0.7 1.5-0.7 0.3 0 0.7 0 1.1 0.1 0.4 0.1 0.7 0.1 0.9 0.1 0.4 0 0.7-0.2 1-0.5 0.3-0.3 0.4-0.7 0.4-1.1 0-0.7-0.4-1.2-1-1.5-0.7-0.3-1.7-0.5-3-0.5zm-30.7 0c-0.7 0-1.4 0.3-1.8 0.8-0.5 0.5-0.7 1.3-0.7 2.3l0 18.8c0 1.1 0.2 1.9 0.7 2.4 0.5 0.5 1.3 0.7 2.4 0.7l11.9 0c0.8 0 1.5-0.2 1.9-0.6 0.4-0.4 0.7-0.9 0.7-1.5 0-0.6-0.2-1.1-0.7-1.5-0.4-0.4-1.1-0.6-1.9-0.6l-10 0 0-17.7c0-1-0.2-1.8-0.7-2.3-0.5-0.5-1.1-0.8-1.9-0.8zm-95.7 0.2c-0.6 0-1.2 0.2-1.6 0.6-0.5 0.4-0.7 1-0.7 1.6 0 0.7 0.2 1.3 0.7 1.7 0.5 0.4 1 0.6 1.7 0.6 0.6 0 1.2-0.2 1.6-0.6 0.5-0.4 0.7-1 0.7-1.7 0-0.7-0.2-1.3-0.7-1.7-0.5-0.4-1-0.6-1.6-0.6zm114.3 0c-0.6 0-1.2 0.2-1.7 0.6l0 0c-0.5 0.4-0.7 1-0.7 1.6 0 0.7 0.2 1.3 0.7 1.7 0.5 0.4 1 0.6 1.7 0.6 0.6 0 1.2-0.2 1.6-0.6 0.5-0.4 0.7-1 0.7-1.7 0-0.7-0.2-1.3-0.7-1.7-0.5-0.4-1-0.6-1.6-0.6zm-35.9 0.4c-0.4 0-0.8 0.1-1.1 0.3-0.3 0.2-0.6 0.5-0.8 0.8-0.2 0.3-0.3 0.7-0.3 1.1 0 0.4-0.1 1-0.1 1.7l0 2.7-0.4 0c-0.7 0-1.2 0.2-1.6 0.5-0.4 0.3-0.6 0.7-0.6 1.2 0 0.5 0.2 0.9 0.5 1.2 0.4 0.3 0.9 0.5 1.5 0.5l0.5 0 0 8.7c0 1.4 0.1 2.5 0.3 3.4 0.2 0.9 0.7 1.5 1.5 2 0.7 0.5 1.8 0.7 3.3 0.7 1.5 0 2.7-0.2 3.5-0.6 0.8-0.4 1.2-1 1.2-1.7 0-0.4-0.2-0.8-0.5-1.1-0.3-0.3-0.7-0.5-1-0.5-0.3 0-0.6 0-1.1 0.1-0.5 0.1-0.8 0.1-1.1 0.1-0.5 0-0.8-0.1-1-0.3-0.2-0.2-0.3-0.5-0.4-0.9-0.1-0.4-0.1-0.9-0.1-1.6l0-8.3 0.8 0c0.9 0 1.6-0.1 2.1-0.4 0.5-0.3 0.8-0.7 0.8-1.3 0-0.5-0.2-0.9-0.5-1.2-0.4-0.3-0.9-0.5-1.5-0.5l-1.6 0 0-3c0-0.8 0-1.4-0.1-1.8-0.1-0.4-0.3-0.8-0.6-1.1-0.5-0.4-1-0.7-1.6-0.7zm-33 6.1c-1.8 0-3.3 0.2-4.5 0.7-1.2 0.5-2.1 1.1-2.7 1.9-0.6 0.8-0.9 1.6-0.9 2.4 0 0.5 0.2 1 0.6 1.3 0.4 0.3 0.8 0.5 1.4 0.5 0.6 0 1-0.1 1.2-0.3 0.2-0.2 0.5-0.6 0.9-1.3 0.4-0.6 0.9-1.1 1.5-1.4 0.6-0.3 1.4-0.5 2.6-0.5 1.3 0 2.2 0.3 2.6 0.8 0.4 0.5 0.6 1.4 0.7 2.6-0.9 0.3-1.8 0.5-2.6 0.7-0.8 0.2-1.8 0.4-2.9 0.6-1.1 0.2-1.9 0.4-2.1 0.4-1.4 0.3-2.5 0.9-3.3 1.8-0.8 0.9-1.2 2-1.2 3.2 0 0.9 0.2 1.8 0.7 2.6 0.5 0.8 1.2 1.4 2.1 1.9 0.9 0.5 1.9 0.7 3.1 0.7 1.3 0 2.4-0.2 3.5-0.6 1-0.4 2.1-1.1 3.1-1.9 0.5 0.8 1 1.4 1.4 1.9 0.5 0.4 0.9 0.7 1.4 0.7 0.6 0 1.1-0.2 1.5-0.6 0.4-0.4 0.7-0.8 0.7-1.3 0-0.3-0.1-0.9-0.4-1.8-0.3-0.9-0.4-1.8-0.4-2.7 0-0.9 0-1.7 0-2.5 0-0.7 0-1.7 0-2.7 0-1.7-0.2-3.1-0.7-4.1-0.5-1-1.3-1.8-2.5-2.3-1.2-0.5-2.7-0.7-4.7-0.7zm91.7 0c-1.4 0-2.6 0.2-3.8 0.7-1.1 0.4-2.1 1.1-2.9 1.9-0.8 0.8-1.4 1.8-1.8 3-0.4 1.2-0.6 2.4-0.6 3.8 0 2.9 0.8 5.1 2.4 6.8 1.6 1.7 3.9 2.5 6.9 2.5 1.3 0 2.4-0.2 3.4-0.5 1-0.3 1.8-0.8 2.5-1.3 0.7-0.5 1.1-1 1.5-1.6 0.3-0.6 0.5-1 0.5-1.5 0-0.5-0.2-0.9-0.5-1.1-0.3-0.3-0.7-0.4-1.2-0.4-0.4 0-0.8 0.1-1 0.3l0 0 0 0c-0.6 0.5-1 1-1.4 1.3-0.4 0.3-0.7 0.6-1.2 0.9-0.4 0.3-0.8 0.5-1.3 0.6-0.4 0.1-0.9 0.2-1.5 0.2-0.8 0-1.5-0.2-2.2-0.6-0.7-0.4-1.2-1-1.6-1.8-0.4-0.8-0.6-1.6-0.6-2.6l8.8 0c1.2 0 2.1-0.2 2.8-0.5 0.7-0.4 1-1.1 1-2.3 0-1.2-0.3-2.5-1-3.7-0.6-1.2-1.6-2.2-2.9-2.9-1.3-0.8-2.8-1.1-4.6-1.1zm-78.8 0c-0.7 0-1.2 0.2-1.6 0.7-0.4 0.4-0.6 1.1-0.6 2l0 13.1c0 0.9 0.2 1.6 0.6 2.1 0.4 0.5 1 0.7 1.7 0.7 0.7 0 1.3-0.2 1.7-0.7l0 0c0.4-0.5 0.7-1.2 0.7-2.1l0-5.7c0-1.8 0.1-3.1 0.3-3.8l0 0c0.3-0.8 0.8-1.5 1.4-2 0.7-0.5 1.4-0.7 2.2-0.7 1.2 0 2 0.4 2.4 1.2 0.4 0.8 0.6 1.9 0.6 3.4l0 7.6c0 0.9 0.2 1.6 0.6 2.1 0.4 0.5 1 0.7 1.7 0.7 0.7 0 1.2-0.2 1.7-0.7 0.4-0.5 0.6-1.2 0.6-2.1l0-8.5c0-1 0-1.8-0.1-2.5-0.1-0.7-0.3-1.3-0.6-1.8-0.5-1-1.2-1.7-2.1-2.2-1-0.5-2-0.8-3.2-0.8-1.2 0-2.3 0.2-3.3 0.7-0.9 0.5-1.8 1.2-2.5 2.2l0-0.4c0-0.6-0.1-1-0.3-1.4l0 0c-0.2-0.4-0.5-0.7-0.8-0.9-0.3-0.2-0.7-0.3-1.1-0.3zm-58.5 0c-0.7 0-1.2 0.2-1.7 0.7-0.4 0.5-0.6 1.2-0.6 2.1l0 13c0 0.9 0.2 1.6 0.6 2.1 0.4 0.5 1 0.7 1.7 0.7 0.7 0 1.2-0.2 1.7-0.7 0.4-0.5 0.7-1.2 0.7-2.1l0-13.1c0-0.8-0.2-1.5-0.7-1.9-0.4-0.5-1-0.7-1.7-0.7zm27.4 0c-0.8 0-1.3 0.3-1.7 0.8-0.4 0.5-0.6 1.3-0.6 2.3l0 12.6c0 0.9 0.2 1.6 0.6 2.1 0.4 0.5 1 0.7 1.7 0.7 0.7 0 1.2-0.2 1.7-0.7 0.4-0.5 0.7-1.2 0.7-2.1l0-3.8c0-1.4 0-2.5 0.1-3.5 0.1-0.9 0.2-1.8 0.5-2.4 0.2-0.7 0.6-1.2 1-1.5 0.4-0.3 0.9-0.5 1.6-0.5 0.5 0 1 0.1 1.7 0.3 0.3 0.1 0.6 0.2 0.8 0.2 0.2 0.1 0.3 0.1 0.4 0.1 0.5 0 0.9-0.2 1.3-0.6 0.4-0.4 0.6-0.9 0.6-1.4 0-0.8-0.5-1.5-1.4-2-0.9-0.5-1.8-0.7-2.8-0.7-1 0-1.7 0.2-2.3 0.7-0.6 0.5-1.1 1.2-1.6 2 0-0.9-0.2-1.6-0.5-2-0.3-0.5-0.9-0.7-1.7-0.7zm87 0c-0.7 0-1.2 0.2-1.7 0.7-0.4 0.5-0.6 1.2-0.6 2.1l0 13c0 0.9 0.2 1.6 0.6 2.1 0.4 0.5 1 0.7 1.7 0.7 0.7 0 1.3-0.2 1.7-0.7 0.4-0.5 0.7-1.2 0.7-2.1l0-13.1c0-0.8-0.2-1.5-0.7-1.9-0.4-0.5-1-0.7-1.7-0.7zm22.7 3.3c1.2 0 2.1 0.4 2.8 1.1 0.7 0.7 1.1 1.9 1.2 3.4l-8.1 0c0.2-1.5 0.6-2.6 1.3-3.4 0.7-0.8 1.6-1.2 2.7-1.2zm-122.7 0.3c0.8 0 1.6 0.2 2.2 0.7 0.6 0.5 1.1 1.1 1.4 2 0.3 0.9 0.5 1.9 0.5 3.1 0 1.8-0.4 3.3-1.2 4.2-0.8 1-1.8 1.5-2.9 1.5-1.3 0-2.4-0.5-3.2-1.4-0.8-1-1.2-2.3-1.2-4.1 0-1.2 0.2-2.3 0.6-3.2 0.4-0.9 0.9-1.6 1.6-2 0.7-0.5 1.4-0.7 2.3-0.7zm34.5 6 0 0.6c0 1.6-0.2 2.7-0.6 3.4-0.3 0.6-0.9 1.1-1.6 1.5-0.8 0.4-1.6 0.6-2.5 0.6-0.8 0-1.5-0.2-2-0.7-0.5-0.5-0.8-1-0.8-1.7 0-0.7 0.2-1.1 0.6-1.5 0.4-0.4 0.9-0.6 1.4-0.7 0.5-0.1 1.4-0.3 2.6-0.6 1.2-0.3 2.2-0.5 2.8-0.8z"/><path d="M43.3 1.9C20.8 1.9 2.6 20.1 2.6 42.6c0 2.7 0.3 5.5 0.9 8.2 0-0.1 0.1-0.3 0.1-0.4 8.5-38.2 41-22.6 43.3 4.1 9.4-11.9-11.6-29.4-1.3-39.5 6.5-6.3 18.8-1.5 29.4 3.1l0.8 0.3C68.5 8.3 56.6 1.9 43.3 1.9Z" fill="url(#logo-horizontal-linearGradient4406)"/><path d="M66.6 19.2C33.8 18.8 87.2 54.7 37.8 77.7 39.3 33.1 14.2 24.4 5 56.2 10.9 72.3 26.2 83 43.3 83c22.5 0 40.7-18.2 40.7-40.6 0-8.3-2.5-16-6.7-22.3l-0.7-0.1c-4-0.6-7.3-0.9-9.9-0.9z" fill="url(#logo-horizontal-linearGradient4398)"/><path class="hide-on-scroll" d="m120 32.6c-1.1 0-2.5 0.1-4.1 0.2-1.6 0.1-3.3 0.4-5.1 0.7-1.8 0.3-3.6 0.8-5.3 1.4-1.8 0.6-3.4 1.3-4.9 2.1-1.5 0.9-2.7 1.9-3.6 3.1-1 1.2-1.5 2.7-1.6 4.3-0.1 1.2 0.3 2.2 1 3.1 0.7 0.8 1.8 1.6 3.3 2.4l0 0c1.5 0.7 3.4 1.5 5.8 2.2 2.4 0.7 5.2 1.6 8.5 2.5 1.1 0.4 2.5 0.8 4 1.2 1.5 0.5 2.9 1 4.2 1.7l0 0c1.3 0.6 2.4 1.3 3.3 2.1 0.8 0.7 1.2 1.4 1.2 2.2 0 0.6-0.2 1-0.6 1.3-0.5 0.3-1.1 0.6-1.8 0.8-0.7 0.2-1.5 0.3-2.2 0.3-0.8 0-1.4 0-1.9 0-2.6 0-5.3-0.3-7.9-0.9-2.6-0.6-5.1-1.5-7.3-2.7l0 0 0 0c-0.3-0.1-0.7-0.4-1.2-0.6l0 0c-0.4-0.3-0.9-0.6-1.3-1l0 0c-0.4-0.4-0.8-0.7-1-1.1l0 0 0 0c-0.3-0.4-0.4-0.7-0.4-1.1 0-0.2 0.1-0.4 0.1-0.6l0 0c0.1-0.2 0.3-0.4 0.5-0.6 0.3-0.2 0.6-0.4 1-0.6 0.4-0.2 0.9-0.5 1.5-0.8l0 0 0 0c0.2-0.1 0.3-0.2 0.5-0.3 0.1-0.1 0.3-0.3 0.3-0.6 0-0.3-0.2-0.6-0.5-0.8-0.2-0.1-0.5-0.2-0.8-0.3l0 0 0 0c-0.2 0-0.4-0.1-0.6-0.1-0.8 0-1.6 0.1-2.2 0.4-0.6 0.3-1.2 0.6-1.6 1-0.4 0.4-0.8 0.9-1 1.5-0.2 0.5-0.4 1.1-0.4 1.6 0 1 0.3 2 0.8 2.9 0.5 0.8 1.2 1.6 2 2.3 0.8 0.7 1.7 1.3 2.6 1.8 0.9 0.5 1.8 0.9 2.7 1.3 2.3 0.9 4.7 1.7 7.2 2.2 2.5 0.5 5 0.8 7.7 0.8 1.2 0 2.3-0.1 3.5-0.3 1.1-0.2 2.1-0.6 3-1.1 0.9-0.5 1.6-1.1 2.2-1.9 0.6-0.8 0.9-1.8 0.9-2.9 0-1.2-0.3-2.3-1-3.3-0.6-0.9-1.4-1.8-2.4-2.5-1-0.7-2-1.4-3.1-2l0 0c-1.1-0.6-2.1-1-3-1.4l0 0 0 0c-1-0.4-2.2-0.8-3.6-1.2-1.4-0.4-3-0.9-4.6-1.3-1.6-0.4-3.2-0.9-4.8-1.3-1.6-0.5-3-0.9-4.2-1.4-1.2-0.5-2.2-1-2.9-1.5-0.7-0.5-0.9-0.8-0.8-1.1l0 0 0 0c0.1-0.8 0.4-1.5 1.2-2.2 0.8-0.7 1.8-1.3 3-1.9 1.3-0.5 2.6-1 4.2-1.4 1.6-0.4 3.1-0.7 4.6-1 1.5-0.2 2.9-0.4 4.2-0.5 1.3-0.1 2.4-0.2 3.1-0.2 0.8 0 1.8 0.1 3 0.2 1.2 0.1 2.3 0.3 3.4 0.5 1.1 0.2 2 0.5 2.7 0.9 0.3 0.2 0.6 0.4 0.7 0.5 0.1 0.2 0.2 0.3 0.2 0.4 0 0.1 0 0.1-0.3 0.2l0 0c-0.3 0.2-0.7 0.3-1.1 0.5-0.5 0.2-0.9 0.3-1.3 0.6l0 0c-0.5 0.3-0.8 0.7-0.8 1.2 0 0.3 0.2 0.7 0.5 0.8l0 0 0 0c0.2 0.1 0.5 0.3 0.7 0.3 0.3 0.1 0.5 0.2 0.7 0.2l0 0c0.2 0.1 0.4 0.1 0.5 0.1 1.3 0 2.5-0.4 3.6-1.1 1-0.8 1.6-1.9 1.6-3.3 0-1-0.3-1.9-0.9-2.7-0.6-0.7-1.3-1.3-2.2-1.9l0 0c-0.9-0.5-1.9-0.9-2.9-1.2-1.1-0.3-2.1-0.6-3.2-0.7l0 0c-1-0.2-2-0.3-3-0.4-0.9-0.1-1.7-0.1-2.3-0.1zm85.9 1.7c-0.3 0-0.5 0.1-0.7 0.3-0.2 0.2-0.3 0.4-0.4 0.6-0.2 0.5-0.3 1-0.4 1.7l0 0c-0.1 0.7-0.2 1.5-0.2 2.4l0 0c0 0.9-0.1 1.8-0.1 2.8-0.1 1.6-0.1 3.5-0.2 5.8 0 2.3-0.1 4.7-0.1 7.1 0 2.5 0 4.9 0.1 7.2 0.1 2.1 0.3 3.9 0.5 5.5-1.4 0.1-2.7 0.3-4.1 0.3-1.5 0.1-3 0.1-4.6 0.1l-1.6 0c-0.6 0-1.2 0.1-1.7 0.2l0 0c-0.5 0.1-1 0.3-1.4 0.5-0.4 0.3-0.7 0.8-0.7 1.4 0 0.4 0.1 0.7 0.4 1 0.2 0.3 0.6 0.4 0.9 0.6 0.7 0.2 1.5 0.4 2.3 0.4l0.4 0c0.2 0 0.6 0 1.3 0 0.6 0 1.6 0 2.9 0 1.3 0 3.1 0 5.4 0 2.3 0 5.2 0 8.7 0l12.9 0c0.3 0 0.8 0 1.2 0l0 0 0 0c0.5 0 1 0 1.5-0.1l0 0c0.5-0.1 0.9-0.2 1.3-0.5l0 0c0.4-0.3 0.7-0.8 0.7-1.3 0-0.6-0.2-1.1-0.6-1.5-0.3-0.4-0.8-0.7-1.2-1l0 0c-0.5-0.3-1-0.5-1.5-0.6-0.5-0.1-0.9-0.3-1.4-0.3l0 0 0 0c-1.7-0.2-3.4-0.2-5-0.2l0 0c-1.6 0-3.2 0.1-4.8 0.2-1.6 0.1-3.1 0.2-4.6 0.4-1.3 0.1-2.5 0.3-3.7 0.4 0.1-0.3 0.2-0.6 0.3-1 0.1-0.6 0.2-1.3 0.3-1.9 0.1-0.6 0.2-1.3 0.2-1.9 0.1-0.6 0.1-1.2 0.1-1.7l0 0 0 0c0-0.8 0-1.7 0.1-2.9 0-1.2 0.1-2.7 0.2-4.4 0.1-1.7 0.2-3.8 0.2-6.1 0.1-2.3 0.2-5 0.3-8.1l0 0c0-0.5 0-1-0.1-1.6-0.1-0.6-0.3-1.1-0.6-1.7-0.3-0.5-0.6-1-1-1.3l0 0 0 0c-0.5-0.4-1-0.6-1.6-0.6zm-48.1 10.8c-0.2 0-0.5 0-0.7 0.1-1 0.2-1.8 0.5-2.5 1.1-0.7 0.6-1 1.4-0.8 2.3 0.1 0.8 0.7 1.5 1.6 1.8 0.8 0.3 1.7 0.4 2.6 0.3l0 0 0 0c0.5-0.1 0.9-0.2 1.3-0.4 0.4-0.2 0.8-0.4 1.1-0.7 0.3-0.3 0.6-0.6 0.8-1l0 0c0.2-0.4 0.2-0.8 0.2-1.3-0.1-0.8-0.7-1.5-1.5-1.8-0.6-0.3-1.3-0.4-2-0.3zm62.9 0c-0.2 0-0.5 0-0.7 0.1-1 0.2-1.8 0.5-2.5 1.1-0.7 0.6-1 1.4-0.8 2.3 0.1 0.8 0.7 1.5 1.6 1.8 0.8 0.3 1.7 0.4 2.6 0.3l0 0 0 0c0.5-0.1 0.9-0.2 1.3-0.4 0.4-0.2 0.8-0.4 1.1-0.7 0.3-0.3 0.6-0.6 0.8-1 0.2-0.4 0.2-0.8 0.2-1.3-0.1-0.8-0.7-1.5-1.5-1.8l0 0c-0.6-0.3-1.3-0.4-2-0.3zm18.2 0c-0.2 0-0.5 0-0.7 0.1-1 0.2-1.8 0.5-2.5 1.1-0.7 0.6-1 1.4-0.8 2.3 0.1 0.8 0.7 1.5 1.6 1.8 0.8 0.3 1.7 0.4 2.6 0.3l0 0 0 0c0.5-0.1 0.9-0.2 1.3-0.4 0.4-0.2 0.8-0.4 1.1-0.7 0.3-0.3 0.6-0.6 0.8-1l0 0c0.2-0.4 0.2-0.8 0.2-1.3-0.1-0.8-0.7-1.5-1.5-1.8-0.6-0.3-1.3-0.4-2-0.3zm-102.1 3.4c-1 0-1.9 0.5-2.6 1.4-0.7 0.9-1.3 1.9-1.7 3.2-0.4 1.3-0.7 2.6-0.9 4-0.1 1.4-0.1 2.8 0.1 4.1 0.2 1.3 0.7 2.4 1.4 3.2 0.7 0.9 1.8 1.4 3.1 1.4 1 0 2-0.2 2.8-0.7 0.8-0.4 1.6-1 2.2-1.7 0.6-0.7 1.2-1.4 1.6-2.2 0 0 0 0 0 0 0 0.3 0 0.7 0 0.9 0 0.6 0.2 1.2 0.7 1.5 0.4 0.3 0.9 0.4 1.4 0.4 0.5 0 1-0.1 1.4-0.4 0.5-0.3 0.8-0.7 0.9-1.3l0 0 0 0c0-0.3 0.1-0.8 0.2-1.3 0.1-0.5 0.3-1.1 0.4-1.6l0 0c0-0.1 0.1-0.2 0.1-0.4 0 0.4 0 0.8 0.1 1.2 0.1 0.7 0.4 1.3 0.9 1.9 0.5 0.6 1.4 0.9 2.4 0.9 0.7 0 1.4-0.4 2-1 0.5-0.5 0.9-1 1.3-1.6 0.1 0.8 0.3 1.5 0.6 2.1 0.4 0.8 1.2 1.4 2.1 1.7l0 0 0 0c0.7 0.2 1.4 0.1 2-0.2 0.5-0.3 1-0.8 1.5-1.3 0.4-0.5 0.8-1.1 1.1-1.8 0.3 0.4 0.6 0.8 1 1.2 0.8 0.7 1.9 1 3.2 1 1.1 0 2.2-0.3 3-1l0 0c0.8-0.6 1.4-1.4 1.9-2.3 0.4-0.9 0.7-1.9 0.7-3 0.1-1.1-0.1-2.1-0.4-3-0.3-1-0.9-1.8-1.7-2.5-0.8-0.7-1.8-1.1-3-1.1l0 0c-1.1-0.1-2 0.2-2.8 0.9l0 0c-0.8 0.6-1.4 1.4-1.8 2.4-0.2 0.3-0.3 0.7-0.4 1.1-0.3 0.2-0.4 0.5-0.5 0.8l0 0 0 0c-0.1 0.3-0.2 0.8-0.4 1.5-0.2 0.7-0.5 1.3-0.7 2-0.2 0.7-0.5 1.2-0.8 1.7-0.1 0.2-0.2 0.3-0.2 0.3 0-0.1-0.1-0.1-0.1-0.3-0.1-0.5-0.1-1.2-0.1-2l0 0c0-0.8 0.1-1.6 0.2-2.4 0.1-0.9 0.2-1.6 0.4-2.1l0 0 0 0c0.1-0.6-0.1-1.3-0.5-1.7l0 0c-0.4-0.4-1-0.7-1.5-0.8-0.1 0-0.3 0-0.4 0-0.4 0-0.9 0.2-1.2 0.4-0.6 0.4-0.8 1.1-0.8 2 0 0.3 0 0.5 0 0.8-0.1 0.2-0.3 0.4-0.3 0.6l0 0c-0.1 0.4-0.3 0.8-0.6 1.4-0.3 0.5-0.5 1.1-0.9 1.5-0.3 0.5-0.6 0.9-0.9 1.2-0.2 0.2-0.1 0.2-0.2 0.2 0 0 0 0 0-0.1l0 0c-0.1-0.4-0.1-1-0.1-1.6 0-0.6 0-1.2 0.1-1.8l0 0c0.1-0.6 0.2-1 0.2-1.3l0 0c0.1-0.3 0.2-0.5 0.1-0.8 0-0.3-0.2-0.5-0.4-0.7l0 0 0 0c-0.4-0.3-0.8-0.5-1.3-0.5l0 0c-0.5 0-1 0.1-1.5 0.3-0.5 0.2-0.9 0.5-1.3 0.9l0 0 0 0c-0.2 0.3-0.5 0.8-0.7 1.2 0.1-0.4 0.1-0.8 0.2-1.2 0.1-0.6 0.2-1.1 0.3-1.5l0 0 0 0c0.1-0.6-0.2-1.2-0.7-1.5l0 0c-0.4-0.3-1-0.4-1.5-0.4l0 0c-0.6 0-1.1 0.3-1.6 0.6-0.6 0.4-0.9 1-1 1.8-0.1 0.5-0.2 1.1-0.2 1.7-0.1 0.2-0.2 0.3-0.3 0.5l0 0 0 0c0 0.2-0.2 0.5-0.4 1-0.2 0.5-0.5 1-0.8 1.6l0 0c-0.3 0.6-0.7 1.2-1.1 1.8-0.4 0.6-0.8 1.2-1.2 1.6-0.4 0.4-0.8 0.8-1.3 1l0 0c-0.4 0.2-0.7 0.3-1 0.2l0 0c-0.2-0.1-0.3-0.2-0.4-0.4l0 0c-0.1-0.3-0.3-0.7-0.3-1.1-0.1-0.5-0.1-1-0.1-1.6 0-0.5 0.1-1 0.1-1.5 0.3 0 0.5-0.1 0.8-0.1 0.5-0.1 1-0.2 1.5-0.3 0.5-0.2 0.9-0.4 1.3-0.6l0 0c0.4-0.3 0.8-0.6 1.1-1 0.4-0.5 0.6-1.2 0.5-2.1-0.1-0.8-0.3-1.6-0.6-2.3l0 0c-0.3-0.8-0.9-1.4-1.5-2-0.5-0.6-1.3-1-2.2-1zm123.4 1c-1.1 0-2.1 0.4-2.9 1.1-0.8 0.7-1.4 1.6-1.9 2.7-0.2 0.4-0.3 0.8-0.5 1.3-0.3 0.2-0.4 0.5-0.5 0.8-0.1 0.4-0.3 0.8-0.6 1.4-0.3 0.5-0.6 1.1-0.9 1.5-0.3 0.5-0.6 0.9-0.9 1.2-0.2 0.2-0.1 0.2-0.2 0.2 0 0 0 0 0-0.1l0 0 0 0c-0.1-0.4-0.1-1-0.1-1.6 0-0.6 0-1.2 0.1-1.8 0.1-0.6 0.2-1 0.2-1.2l0 0c0.1-0.3 0.2-0.5 0.1-0.8 0-0.3-0.2-0.5-0.4-0.7l0 0 0 0c-0.4-0.3-0.8-0.5-1.3-0.5-0.5 0-1 0.1-1.5 0.3-0.5 0.2-0.9 0.5-1.3 0.9l0 0 0 0c-0.2 0.3-0.5 0.8-0.7 1.2 0.1-0.4 0.1-0.8 0.2-1.2l0 0c0.1-0.6 0.2-1.1 0.3-1.5l0 0 0 0c0.1-0.6-0.2-1.2-0.7-1.5l0 0c-0.4-0.3-1-0.4-1.5-0.4-0.6 0-1.1 0.3-1.6 0.6-0.6 0.4-0.9 1-1 1.8-0.1 0.5-0.2 1.1-0.2 1.7-0.1 0.2-0.2 0.4-0.3 0.6l0 0 0 0c-0.1 0.3-0.2 0.8-0.4 1.5-0.2 0.7-0.5 1.3-0.7 2-0.2 0.7-0.5 1.2-0.8 1.7-0.1 0.2-0.2 0.3-0.2 0.3 0-0.1-0.1-0.1-0.1-0.3-0.1-0.5-0.1-1.2-0.1-2l0 0c0-0.8 0.1-1.6 0.2-2.4 0.1-0.9 0.2-1.6 0.4-2.1l0 0 0 0c0.1-0.6-0.1-1.3-0.5-1.7-0.4-0.4-1-0.7-1.5-0.8l0 0c-0.1 0-0.3 0-0.4 0-0.4 0-0.9 0.2-1.2 0.4-0.6 0.4-0.8 1.1-0.8 2 0 1 0 2-0.1 3.1-0.1 1.1-0.1 2.1 0 3 0.1 1 0.3 1.8 0.7 2.6 0.4 0.8 1.2 1.4 2.1 1.7l0 0 0 0c0.7 0.2 1.4 0.1 2-0.2 0.5-0.3 1-0.8 1.5-1.3 0.2-0.2 0.4-0.5 0.5-0.8 0 0.1 0 0.1 0 0.2 0 0.6 0.2 1.2 0.7 1.5 0.4 0.3 0.9 0.4 1.4 0.4 0.5 0 1-0.1 1.4-0.4 0.5-0.3 0.8-0.7 0.9-1.3l0 0 0 0c0-0.3 0.1-0.8 0.2-1.3 0.1-0.5 0.3-1.1 0.4-1.6l0 0c0-0.1 0.1-0.2 0.1-0.4 0 0.4 0 0.8 0.1 1.2 0.1 0.7 0.4 1.3 0.9 1.9 0.5 0.6 1.4 0.9 2.4 0.9 0.7 0 1.4-0.4 2-1 0.5-0.5 1-1.1 1.4-1.7 0.3 1 0.7 1.8 1.4 2.5 0.6 0.6 1.5 0.9 2.4 1-0.7 0.3-1.5 0.6-2.1 1-0.9 0.6-1.5 1.3-1.9 2.2-0.4 0.9-0.4 2 0.2 3.1l0 0 0 0c0.4 0.7 1 1.3 2 1.7 0.9 0.4 1.9 0.5 3 0.3 1.1-0.2 2.1-0.7 3.1-1.4 1-0.8 1.8-2.1 2.3-3.8l0 0 0 0c0.2-0.6 0.3-1.1 0.4-1.6l0 0c0.1-0.5 0.2-1 0.2-1.4 0.9-0.9 1.8-1.9 2.6-3.2 0.9-1.3 1.6-3 2.2-4.9l0 0c0.1-0.4 0.1-0.8-0.1-1.2l0 0c-0.2-0.3-0.4-0.5-0.8-0.6-0.3-0.1-0.7-0.1-1 0.1l0 0c-0.4 0.2-0.6 0.5-0.7 0.9-0.6 1.6-1.3 2.9-2 4.1 0-0.5 0-1 0-1.5 0-1.2 0.1-2.5 0.3-4.1l0 0 0 0c0-0.4 0-0.9-0.3-1.2-0.2-0.3-0.5-0.6-0.9-0.7l0 0c-0.3-0.1-0.7-0.2-1-0.2l0 0c-0.2 0-0.5 0-0.7 0.1-0.3-0.6-0.7-1.1-1.3-1.5-0.6-0.4-1.3-0.7-2-0.7zm-32.4 1.1c-0.3 0-0.5 0-0.8 0l0 0c-0.6 0.1-1.1 0.3-1.6 0.6l0 0c-0.5 0.4-0.9 1-0.9 1.6-0.1 0.7-0.1 1.3-0.2 2-0.1 0.1-0.2 0.3-0.2 0.5l0 0 0 0c-0.1 0.3-0.2 0.8-0.4 1.5-0.2 0.7-0.5 1.3-0.7 2-0.3 0.7-0.5 1.2-0.8 1.7-0.1 0.2-0.2 0.3-0.2 0.3 0-0.1-0.1-0.1-0.1-0.3-0.1-0.5-0.1-1.2-0.1-2l0 0c0-0.8 0.1-1.6 0.2-2.4 0.1-0.9 0.2-1.6 0.4-2.1l0 0 0 0c0.1-0.6-0.1-1.3-0.5-1.7l0 0c-0.4-0.4-1-0.7-1.5-0.8-0.1 0-0.3 0-0.4 0-0.4 0-0.9 0.2-1.2 0.4-0.6 0.4-0.8 1.1-0.8 2 0 1 0 2-0.1 3.1-0.1 1.1-0.1 2.1 0 3 0.1 1 0.3 1.8 0.7 2.6 0.4 0.8 1.2 1.4 2.1 1.7l0 0 0 0c0.7 0.2 1.4 0.1 2-0.2 0.5-0.3 1-0.8 1.5-1.3 0.4-0.6 0.8-1.2 1.1-1.9 0 0 0-0.1 0-0.1 0.3 0.9 0.8 1.6 1.4 2.2 0.7 0.7 1.6 1.1 2.6 1 0.8 0 1.5-0.3 2.2-0.9 0.6-0.5 1.1-1.2 1.5-2l0 0c0.4-0.8 0.7-1.6 1-2.5l0 0c0.3-0.9 0.5-1.7 0.6-2.5 0.1-0.8 0.3-1.5 0.3-2.1 0.1-0.6 0.1-1 0.1-1.2l0 0 0 0c0-0.4-0.1-0.9-0.5-1.2l0 0c-0.3-0.2-0.6-0.3-1-0.3-0.4 0-0.7 0.1-1 0.3-0.4 0.2-0.6 0.7-0.6 1.1 0 0.3-0.1 0.9-0.2 1.8-0.1 0.9-0.3 1.8-0.5 2.7-0.2 0.9-0.4 1.7-0.7 2.4l0 0c-0.1 0.3-0.3 0.6-0.3 0.7 0 0 0 0 0 0 0 0 0 0 0 0-0.1-0.1-0.2-0.3-0.3-0.6l0 0c-0.2-0.6-0.4-1.3-0.6-2.2-0.1-0.9-0.2-1.8-0.2-2.9 0-1 0.1-1.9 0.3-2.8l0 0 0 0c0.1-0.3 0-0.6-0.2-0.8-0.2-0.2-0.4-0.3-0.7-0.4-0.2-0.1-0.5-0.1-0.7-0.1zm-53.2 0.5c-0.5 0-1 0.2-1.3 0.5l0 0c-0.4 0.3-0.6 0.6-0.8 1-0.2 0.4-0.3 0.9-0.2 1.3 0 0.4 0.2 0.7 0.5 1l-0.2 0.6c-0.2 0.4-0.2 0.8 0.1 1.2 0.2 0.3 0.5 0.5 0.8 0.5 0.3 0.1 0.7 0 1-0.1 0.3-0.2 0.6-0.5 0.7-0.9-0.2 0.6-0.3 1.2-0.4 1.9-0.1 1.1-0.2 2.1-0.1 3 0.1 1 0.3 1.8 0.7 2.5 0.4 0.8 1.2 1.3 2.1 1.3 0.8 0 1.5-0.2 2.1-0.6 0.6-0.4 1.1-0.9 1.6-1.6 0.5-0.6 0.9-1.3 1.2-2.1 0.3-0.7 0.6-1.4 0.8-2.1 0.2-0.7 0.4-1.3 0.5-1.8l0 0c0.1-0.5 0.2-0.9 0.2-1.1l0 0 0 0c0-0.4 0-0.8-0.3-1.1l0 0 0 0c-0.2-0.3-0.6-0.4-0.9-0.5l0 0 0 0c-0.3 0-0.7 0.1-0.9 0.2-0.3 0.2-0.6 0.6-0.6 1l0 0 0 0c-0.1 0.3-0.2 0.9-0.5 1.6-0.3 0.7-0.5 1.5-0.8 2.2l0 0c-0.3 0.7-0.6 1.4-0.9 1.9-0.1 0.2-0.2 0.3-0.3 0.4 0-0.1 0-0.1-0.1-0.2l0 0c-0.1-0.5-0.1-1 0-1.7l0 0c0.1-0.7 0.2-1.4 0.3-2.2l0 0c0.1-0.8 0.3-1.5 0.4-2l0 0c0.1-0.3 0.1-0.6 0.1-0.9 0-0.3-0.2-0.6-0.5-0.7l0 0c-0.4-0.2-0.8-0.3-1.2-0.3-0.4 0-0.8 0.1-1.3 0.1l0 0c-0.2 0-0.2 0-0.3 0 0.1-0.4 0.3-0.9 0.2-1.3 0-0.4-0.2-0.7-0.5-0.9-0.3-0.2-0.7-0.3-1.1-0.3zm-37.2 1c0 0.1 0.1 0.3 0.1 0.5 0 0.4 0 0.7 0 1 0 0.3-0.1 0.5-0.2 0.6l0 0 0 0c-0.1 0.1-0.2 0.2-0.5 0.3-0.1 0-0.2 0-0.3 0 0.2-0.7 0.3-1.4 0.5-1.9 0.1-0.2 0.2-0.4 0.2-0.5zm123.2 0.4c0 0 0.1 0 0.2 0 0.2 0 0.4 0.2 0.6 0.6 0.2 0.5 0.4 1 0.5 1.7 0.1 0.7 0.1 1.5 0 2.3-0.1 0.8-0.3 1.6-0.5 2.3-0.1 0.2-0.2 0.4-0.3 0.7-0.1 0.2-0.2 0.4-0.3 0.6-0.1 0.2-0.2 0.3-0.3 0.4-0.1 0.1-0.2 0.1-0.3 0.1-0.4 0-0.5-0.1-0.7-0.5-0.2-0.4-0.4-1-0.5-1.7l0 0c-0.1-0.7-0.1-1.4 0-2.3l0 0c0.1-0.8 0.3-1.6 0.5-2.3 0.2-0.7 0.5-1.2 0.8-1.6 0.2-0.3 0.3-0.4 0.5-0.4zm-93.9 0.5c0.2 0 0.3 0.1 0.5 0.4 0.2 0.4 0.4 0.8 0.5 1.4 0.1 0.6 0.2 1.2 0.2 1.9 0 0.7 0 1.3-0.1 1.9-0.1 0.5-0.2 1-0.4 1.3-0.2 0.3-0.2 0.3-0.4 0.3l0 0 0 0c-0.3 0-0.4-0.1-0.6-0.4l0 0c-0.2-0.4-0.4-0.8-0.5-1.4l0 0c-0.1-0.6-0.2-1.2-0.2-1.8 0-0.7 0.1-1.3 0.2-1.8 0.1-0.5 0.3-1 0.4-1.3 0.2-0.3 0.3-0.3 0.4-0.3zm94.1 13.2c-0.3 1-0.6 1.8-1 2.2-0.4 0.6-0.8 0.8-1.1 0.9-0.3 0.1-0.4 0.1-0.5-0.1l0 0c-0.1-0.1-0.2-0.3-0.1-0.7l0 0 0 0c0.1-0.8 0.5-1.3 1.2-1.8 0.5-0.3 1-0.4 1.6-0.6z" fill="#1a438e"/></svg>